<svg width="469" height="380" viewBox="0 0 469 380" fill="none" xmlns="http://www.w3.org/2000/svg">
<path d="M307.621 482.372C306.689 482.372 305.936 481.619 305.936 480.688C305.936 480.32 305.812 443.181 295.529 382.725C293.769 372.373 249.705 128.765 14.3847 90.1854C13.4655 90.0347 12.8446 89.1667 12.9953 88.2475C13.146 87.3313 14.011 86.7135 14.9302 86.8582C252.598 125.823 297.075 371.71 298.854 382.159C309.188 442.922 309.305 480.314 309.305 480.684C309.305 481.619 308.549 482.372 307.621 482.372Z" fill="white"/>
<path d="M294.089 370.823C293.839 370.823 293.58 370.763 293.341 370.645C292.742 370.347 233.304 340.107 213.528 267.707C194.963 199.747 216.177 118.197 276.576 25.3164C277.085 24.5358 278.128 24.3128 278.906 24.8221C279.686 25.3284 279.906 26.3741 279.4 27.1517C219.546 119.192 198.477 199.825 216.777 266.815C236.161 337.777 294.255 367.333 294.839 367.622C295.674 368.038 296.015 369.048 295.602 369.883C295.306 370.479 294.707 370.823 294.089 370.823Z" fill="white"/>
<path d="M214.519 169.058C214.152 169.058 213.781 168.938 213.471 168.69C212.741 168.112 212.621 167.051 213.202 166.325C213.459 166.002 239.338 134.053 279.867 134.053C280.798 134.053 281.552 134.81 281.552 135.741C281.552 136.672 280.795 137.426 279.867 137.426C240.947 137.426 216.087 168.115 215.84 168.422C215.508 168.838 215.017 169.058 214.519 169.058Z" fill="white"/>
<path d="M224.155 134.767C224.07 134.767 223.986 134.761 223.901 134.749C222.982 134.611 222.349 133.752 222.485 132.832C222.527 132.546 226.355 103.958 194.451 79.3051C193.716 78.7355 193.577 77.6777 194.146 76.9423C194.713 76.2069 195.774 76.0653 196.509 76.6379C230.058 102.565 226.005 132.088 225.815 133.336C225.692 134.171 224.974 134.767 224.155 134.767Z" fill="white"/>
<path d="M240.851 93.8254C240.516 93.8254 240.182 93.726 239.886 93.518C239.127 92.9846 238.94 91.9418 239.467 91.1793C240.049 90.3475 254.144 70.7671 294.089 70.7671C295.02 70.7671 295.774 71.5205 295.774 72.4518C295.774 73.383 295.017 74.1365 294.089 74.1365C256.037 74.1365 242.364 92.9213 242.231 93.1111C241.903 93.5752 241.381 93.8254 240.851 93.8254Z" fill="white"/>
<path d="M251.435 72.7519C251.26 72.7519 251.086 72.7247 250.914 72.6705C250.031 72.3842 249.545 71.4349 249.832 70.5489C249.931 70.2384 259.56 39.4106 236.463 15.3488C235.818 14.6767 235.839 13.6128 236.511 12.9679C237.18 12.3199 238.247 12.341 238.895 13.0191C263.421 38.5698 253.147 71.2661 253.038 71.5946C252.803 72.3028 252.143 72.7519 251.435 72.7519Z" fill="white"/>
<path d="M91.0066 194.682C90.5665 194.685 90.1295 194.514 89.801 194.176C89.1531 193.507 89.1652 192.443 89.8312 191.792C129.779 152.848 183.396 169.632 183.936 169.807C184.819 170.096 185.307 171.042 185.018 171.928C184.729 172.812 183.782 173.303 182.896 173.013C182.378 172.845 130.647 156.718 92.1789 194.203C91.8534 194.523 91.4285 194.682 91.0066 194.682Z" fill="white"/>
<path d="M157.014 150.561C156.493 150.561 155.977 150.32 155.649 149.862C136.086 122.892 141.84 97.3352 144.296 86.4224C144.712 84.5719 145.073 82.9716 145.073 82.2965C145.073 81.3652 145.827 80.6118 146.758 80.6118C147.689 80.6118 148.443 81.3652 148.443 82.2965C148.443 83.3483 148.102 84.8643 147.584 87.1638C145.227 97.6306 139.709 122.144 158.376 147.885C158.922 148.638 158.756 149.693 158.002 150.236C157.704 150.453 157.358 150.561 157.014 150.561Z" fill="white"/>
<path d="M35.6287 145.961C35.2098 145.961 34.7939 145.804 34.4654 145.497C33.7903 144.855 33.7662 143.788 34.4081 143.113C72.4357 103.184 114.939 120.019 115.361 120.196C116.223 120.549 116.633 121.532 116.28 122.39C115.927 123.249 114.942 123.659 114.083 123.313C113.676 123.144 73.2404 107.225 36.8493 145.44C36.5147 145.783 36.0717 145.958 35.6287 145.961Z" fill="white"/>
<path d="M83.2823 108.95C82.8905 108.95 82.4957 108.812 82.1762 108.534C51.7342 82.0224 58.9462 58.4758 59.2656 57.4873C59.5519 56.6043 60.5013 56.1191 61.3843 56.4084C62.2673 56.6947 62.7555 57.641 62.4723 58.524C62.4029 58.7471 55.7365 81.0429 84.3883 105.994C85.0905 106.606 85.1629 107.673 84.5511 108.372C84.2196 108.751 83.7494 108.95 83.2823 108.95Z" fill="white"/>
<path d="M290.668 21.9682C290.668 27.9324 285.834 32.7665 279.87 32.7665C273.906 32.7665 269.072 27.9324 269.072 21.9682C269.072 16.0039 273.906 11.1699 279.87 11.1699C285.831 11.1699 290.668 16.0039 290.668 21.9682Z" fill="white"/>
<path d="M245.953 11.1694C245.953 17.1337 241.119 21.9677 235.155 21.9677C229.191 21.9677 224.356 17.1337 224.356 11.1694C224.356 5.20519 229.191 0.371094 235.155 0.371094C241.119 0.371094 245.953 5.20519 245.953 11.1694Z" fill="white"/>
<path d="M299.369 83.246C305.333 83.246 310.167 78.4114 310.167 72.4477C310.167 66.4839 305.333 61.6494 299.369 61.6494C293.405 61.6494 288.571 66.4839 288.571 72.4477C288.571 78.4114 293.405 83.246 299.369 83.246Z" fill="white"/>
<path d="M204.435 76.469C204.435 82.4332 199.601 87.2673 193.637 87.2673C187.673 87.2673 182.839 82.4332 182.839 76.469C182.839 70.5048 187.673 65.6707 193.637 65.6707C199.601 65.6707 204.435 70.5048 204.435 76.469Z" fill="white"/>
<path d="M240.854 61.6499C240.854 67.6141 236.02 72.4481 230.056 72.4481C224.091 72.4481 219.257 67.6141 219.257 61.6499C219.257 55.6857 224.091 50.8516 230.056 50.8516C236.02 50.8516 240.854 55.6857 240.854 61.6499Z" fill="white"/>
<path d="M264.44 111.88C264.44 117.845 259.605 122.679 253.641 122.679C247.677 122.679 242.843 117.845 242.843 111.88C242.843 105.916 247.677 101.082 253.641 101.082C259.605 101.082 264.44 105.916 264.44 111.88Z" fill="white"/>
<path d="M178.611 131.193C178.611 137.157 173.777 141.991 167.812 141.991C161.848 141.991 157.014 137.157 157.014 131.193C157.014 125.229 161.848 120.395 167.812 120.395C173.777 120.392 178.611 125.229 178.611 131.193Z" fill="white"/>
<path d="M188.146 195.009C188.146 200.973 183.312 205.807 177.348 205.807C171.384 205.807 166.549 200.973 166.549 195.009C166.549 189.044 171.384 184.21 177.348 184.21C183.309 184.21 188.146 189.044 188.146 195.009Z" fill="white"/>
<path d="M248.476 182.2C248.476 188.164 243.642 192.998 237.677 192.998C231.713 192.998 226.879 188.164 226.879 182.2C226.879 176.236 231.713 171.402 237.677 171.402C243.639 171.402 248.476 176.236 248.476 182.2Z" fill="white"/>
<path d="M123.405 98.0653C123.405 104.03 118.57 108.864 112.606 108.864C106.642 108.864 101.808 104.03 101.808 98.0653C101.808 92.1011 106.642 87.2671 112.606 87.2671C118.567 87.2671 123.405 92.1011 123.405 98.0653Z" fill="white"/>
<path d="M52.78 111.88C52.78 117.845 47.9459 122.679 41.9817 122.679C36.0175 122.679 31.1834 117.845 31.1834 111.88C31.1834 105.916 36.0175 101.082 41.9817 101.082C47.9459 101.079 52.78 105.916 52.78 111.88Z" fill="white"/>
<path d="M128.175 144.107C128.175 150.071 123.341 154.906 117.377 154.906C111.413 154.906 106.579 150.071 106.579 144.107C106.579 138.143 111.413 133.309 117.377 133.309C123.338 133.306 128.175 138.143 128.175 144.107Z" fill="white"/>
<path d="M293.091 135.738C293.091 141.702 288.257 146.536 282.293 146.536C276.329 146.536 271.495 141.702 271.495 135.738C271.495 129.773 276.329 124.939 282.293 124.939C288.257 124.939 293.091 129.773 293.091 135.738Z" fill="white"/>
<path d="M432.315 232.43C432.315 238.395 427.481 243.229 421.517 243.229C415.552 243.229 410.718 238.395 410.718 232.43C410.718 226.466 415.552 221.632 421.517 221.632C427.478 221.629 432.315 226.466 432.315 232.43Z" fill="white"/>
<path d="M399.664 240.969C399.664 246.933 394.83 251.767 388.866 251.767C382.901 251.767 378.067 246.933 378.067 240.969C378.067 235.005 382.901 230.171 388.866 230.171C394.83 230.171 399.664 235.005 399.664 240.969Z" fill="white"/>
<path d="M365.44 275.959C365.44 281.924 360.606 286.758 354.641 286.758C348.677 286.758 343.843 281.924 343.843 275.959C343.843 269.995 348.677 265.161 354.641 265.161C360.603 265.161 365.44 269.995 365.44 275.959Z" fill="white"/>
<path d="M468.408 259.804C468.408 265.768 463.574 270.602 457.61 270.602C451.645 270.602 446.811 265.768 446.811 259.804C446.811 253.84 451.645 249.006 457.61 249.006C463.574 249.006 468.408 253.84 468.408 259.804Z" fill="white"/>
<path d="M453.912 320.598C453.912 326.562 449.078 331.396 443.113 331.396C437.149 331.396 432.315 326.562 432.315 320.598C432.315 314.634 437.149 309.8 443.113 309.8C449.078 309.8 453.912 314.634 453.912 320.598Z" fill="white"/>
<path d="M419.395 314.358C419.395 320.322 414.561 325.156 408.597 325.156C402.633 325.156 397.798 320.322 397.798 314.358C397.798 308.394 402.633 303.56 408.597 303.56C414.558 303.557 419.395 308.394 419.395 314.358Z" fill="white"/>
<path d="M376.238 311.307C376.238 317.271 371.404 322.105 365.44 322.105C359.476 322.105 354.641 317.271 354.641 311.307C354.641 305.343 359.476 300.509 365.44 300.509C371.404 300.506 376.238 305.343 376.238 311.307Z" fill="white"/>
<path d="M384.245 359.959C384.245 365.924 379.411 370.758 373.447 370.758C367.483 370.758 362.649 365.924 362.649 359.959C362.649 353.995 367.483 349.161 373.447 349.161C379.411 349.161 384.245 353.995 384.245 359.959Z" fill="white"/>
<path d="M157.014 77.9761C157.014 83.9403 152.18 88.7744 146.216 88.7744C140.251 88.7744 135.417 83.9403 135.417 77.9761C135.417 72.0118 140.251 67.1777 146.216 67.1777C152.177 67.1747 157.014 72.0118 157.014 77.9761Z" fill="white"/>
<path d="M70.8204 58.0093C70.8204 63.9735 65.9863 68.8076 60.022 68.8076C54.0578 68.8076 49.2237 63.9735 49.2237 58.0093C49.2237 52.045 54.0578 47.2109 60.022 47.2109C65.9863 47.2079 70.8204 52.045 70.8204 58.0093Z" fill="white"/>
<path d="M21.5966 87.2668C21.5966 93.2311 16.7625 98.0651 10.7983 98.0651C4.83407 98.0651 0 93.2311 0 87.2668C0 81.3026 4.83407 76.4685 10.7983 76.4685C16.7625 76.4685 21.5966 81.3026 21.5966 87.2668Z" fill="white"/>
<path d="M46.427 144.279C46.427 150.243 41.5929 155.077 35.6287 155.077C29.6644 155.077 24.8304 150.243 24.8304 144.279C24.8304 138.314 29.6644 133.48 35.6287 133.48C41.5929 133.48 46.427 138.314 46.427 144.279Z" fill="white"/>
<path d="M101.805 195.009C101.805 200.973 96.9708 205.807 91.0065 205.807C85.0423 205.807 80.2082 200.973 80.2082 195.009C80.2082 189.044 85.0423 184.21 91.0065 184.21C96.9708 184.21 101.805 189.044 101.805 195.009Z" fill="white"/>
</svg>
