<svg width="450" height="479" viewBox="0 0 450 479" fill="none" xmlns="http://www.w3.org/2000/svg">
<g opacity="0.08">
<path d="M206.733 147.069C206.643 146.157 207.306 145.344 208.218 145.254C263.321 139.727 317.573 147.974 366.802 162.421C366.813 162.451 366.806 162.481 366.821 162.51C367.683 164.531 369.253 165.974 371.071 167.145C320.842 151.853 265.136 142.879 208.549 148.554C207.636 148.644 206.825 147.979 206.733 147.069Z" fill="white"/>
<path d="M218.262 147.277L217.123 145.398C216.559 144.466 159.514 52.831 55.2593 103.654L53.2233 104.647L54.7849 106.29C90.4239 143.78 197.202 153.05 216.145 147.859L218.262 147.277ZM58.805 105.637C150.443 62.4088 204.088 132.244 212.973 145.137C190.068 148.797 93.2171 138.917 58.805 105.637Z" fill="white"/>
<path d="M210.427 163.233C215.773 153.621 217.286 146.823 217.333 146.591C217.516 145.695 216.937 144.819 216.04 144.636C215.141 144.452 214.271 145.021 214.083 145.927C213.932 146.699 196.887 222.307 69.3461 225.749C77.1712 193.249 157.132 148.399 182.344 148.48C183.26 148.487 184.004 147.754 184.008 146.825C184.011 145.91 183.27 145.166 182.355 145.163C155.202 145.074 70.9715 192.48 65.6824 227.208L65.3869 229.156L67.3585 229.115C161.237 227.166 197.334 186.774 210.427 163.233Z" fill="white"/>
<path d="M93.1605 193.874C93.3205 193.586 93.3979 193.246 93.3589 192.895C93.2633 191.986 92.4504 191.323 91.5405 191.415C91.3056 191.44 68.002 193.392 38.0464 161.83C54.5009 132.299 78.3989 122.534 78.6407 122.441C79.4977 122.102 79.9068 121.135 79.5709 120.286C79.2324 119.435 78.2691 119.019 77.4202 119.355C76.3767 119.766 51.7311 129.74 34.554 161.296L33.9846 162.344L34.799 163.218C66.4 197.023 90.8607 194.823 91.8882 194.715C92.4473 194.656 92.9081 194.328 93.1605 193.874Z" fill="white"/>
<path d="M214.222 144.786L213.728 144.331C162.982 97.658 104.393 100.393 103.806 100.43C103.4 100.452 103.09 100.802 103.106 101.212C103.131 101.62 103.482 101.934 103.89 101.909C104.467 101.878 162.077 99.2121 212.226 144.969C187.203 178.002 144.875 202.781 117.58 209.374C117.183 209.472 116.939 209.873 117.032 210.268C117.129 210.668 117.53 210.911 117.929 210.817C145.623 204.127 188.64 178.903 213.817 145.325L214.222 144.786Z" fill="white"/>
<path d="M213.422 146.51L212.273 145.908C188.826 133.666 119.416 119.141 118.718 118.997C118.319 118.915 117.92 119.168 117.841 119.573C117.757 119.974 118.017 120.367 118.416 120.449C119.101 120.592 186.096 134.613 210.42 146.633C185.689 161.918 158.926 172.331 142.838 178.591C138.313 180.352 134.741 181.74 132.241 182.835C131.87 182.995 131.696 183.435 131.859 183.814C132.024 184.188 132.463 184.358 132.838 184.196C135.309 183.112 138.869 181.728 143.378 179.971C159.756 173.598 187.168 162.934 212.328 147.195L213.422 146.51Z" fill="white"/>
<path d="M173.41 146.296C173.498 146.137 173.527 145.95 173.484 145.759C173.388 145.363 172.987 145.12 172.589 145.214C133.898 154.575 61.9682 157.119 61.2471 157.146C60.8376 157.156 60.5181 157.504 60.5294 157.911C60.5434 158.32 60.8879 158.64 61.2963 158.626C62.0185 158.604 134.099 156.052 172.936 146.653C173.145 146.607 173.313 146.469 173.41 146.296Z" fill="white"/>
<path d="M157.132 144.192C157.181 144.104 157.213 144.003 157.223 143.893C157.257 143.484 156.954 143.126 156.545 143.092C112.961 139.386 75.7492 138.678 75.3777 138.668C74.9665 138.656 74.6303 138.992 74.6232 139.396C74.6158 139.806 74.941 140.143 75.3497 140.153C75.72 140.159 112.884 140.867 156.421 144.567C156.721 144.595 156.995 144.438 157.132 144.192Z" fill="white"/>
<path d="M143.862 159.937C143.967 159.747 143.991 159.509 143.898 159.291C143.74 158.915 143.305 158.734 142.929 158.891C142.567 159.04 106.861 173.745 88.8725 172.469C88.4632 172.442 88.1123 172.749 88.0799 173.156C88.0526 173.565 88.357 173.921 88.7689 173.95C107.105 175.252 142.018 160.877 143.496 160.263C143.656 160.196 143.782 160.079 143.862 159.937Z" fill="white"/>
<path d="M464.364 202.751L461.848 198.71C384.382 74.1642 314.427 30.9794 269.384 16.6844L266.484 15.764L267.282 18.6999C291.042 106.083 342.419 151.379 381.336 173.994C423.518 198.504 460.645 202.387 461.013 202.422L464.364 202.751ZM271.31 20.8042C315.674 35.788 383.087 79.0126 457.901 198.647C447.847 197.079 417.069 190.945 382.873 171.047C344.984 149 295.095 105.088 271.31 20.8042Z" fill="white"/>
<path d="M459.093 199.867C459.104 199.849 459.114 199.831 459.121 199.811C459.538 198.994 459.21 197.997 458.393 197.58C382.788 159.139 290.198 37.5735 289.272 36.352C288.718 35.6197 287.677 35.4783 286.948 36.0307C286.219 36.5857 286.075 37.626 286.627 38.3543C287.558 39.5853 380.602 161.75 456.891 200.537C457.69 200.944 458.662 200.643 459.093 199.867Z" fill="white"/>
<path d="M458.336 199.698L457.164 198.156C415.866 143.833 336.03 70.9137 335.228 70.1824C334.927 69.9062 334.457 69.9267 334.182 70.2321C333.899 70.5331 333.927 71.0072 334.232 71.2783C335.025 72.0012 413.174 143.381 454.728 197.413C441.139 193.997 360.614 169.81 295.487 64.0102C295.272 63.6594 294.815 63.5516 294.469 63.7662C294.118 63.9819 294.009 64.4406 294.225 64.7848C365.602 180.743 455.534 199.157 456.432 199.331L458.336 199.698Z" fill="white"/>
<path d="M131.337 269.933C184.07 196.319 248.018 171.775 292.38 164.149C327.504 158.111 356.239 161.449 369.326 163.723L377.484 168.26L376.47 169.044C260.442 258.775 179.816 274.861 132.608 272.555L129.568 272.406L131.337 269.933ZM372.733 167.737C362.762 165.702 331.778 160.719 292.79 167.447C249.592 174.902 187.524 198.661 135.846 269.365C182.652 270.788 260.915 253.776 372.733 167.737Z" fill="white"/>
<path d="M374.085 168.067C374.248 167.774 374.324 167.43 374.284 167.075C374.179 166.164 373.358 165.51 372.447 165.615C287.421 175.369 157.625 257.429 156.323 258.257C155.546 258.755 155.322 259.775 155.813 260.547C156.304 261.319 157.329 261.55 158.103 261.056C159.397 260.231 288.561 178.577 372.825 168.911C373.373 168.846 373.834 168.518 374.085 168.067Z" fill="white"/>
<path d="M373.509 166.908L371.6 166.586C370.695 166.436 279.988 152.341 172.658 236.133C172.333 236.394 172.28 236.849 172.53 237.175C172.784 237.5 173.249 237.555 173.573 237.303C271.538 160.818 355.412 166.248 369.335 167.788C311.551 203.942 213.413 243.596 212.419 243.997C212.045 244.145 211.856 244.576 212.008 244.963C212.16 245.343 212.594 245.527 212.974 245.375C213.98 244.97 314.232 204.462 371.876 167.945L373.509 166.908Z" fill="white"/>
<path d="M604.818 289.698L602.301 287.467C602.023 287.221 573.924 262.65 527.263 248.402C484.216 235.257 416.063 228.409 335.849 270.436L333.154 271.846L335.803 273.346C376.919 296.642 456.157 318.544 600.148 290.605L604.818 289.698ZM340.131 271.955C477.171 201.821 579.732 273.916 597.404 287.755C458.833 314.288 381.286 294.277 340.131 271.955Z" fill="white"/>
<path d="M598.987 288.089C599.028 288.016 599.066 287.936 599.095 287.853C599.41 286.993 598.972 286.04 598.11 285.723C517.785 256.189 364.947 271.089 363.411 271.243C362.501 271.335 361.836 272.146 361.926 273.059C362.017 273.969 362.829 274.634 363.741 274.544C365.266 274.39 517.357 259.566 596.962 288.837C597.745 289.126 598.596 288.792 598.987 288.089Z" fill="white"/>
<path d="M598.48 287.359L596.918 286.211C596.181 285.669 521.51 232.277 387.956 258.836C387.553 258.914 387.294 259.313 387.373 259.707C387.453 260.108 387.844 260.369 388.246 260.287C510.147 236.047 582.613 278.625 594.352 286.265C526.479 292.562 420.994 283.831 419.927 283.741C419.52 283.704 419.158 284.006 419.124 284.415C419.091 284.824 419.394 285.182 419.803 285.216C420.881 285.31 528.639 294.229 596.547 287.543L598.48 287.359Z" fill="white"/>
<path d="M363.049 163.227C363.053 163.219 363.056 163.214 363.06 163.206C363.493 162.397 363.189 161.393 362.385 160.959C361.571 160.524 280.76 116.944 246.273 79.8367C245.651 79.1678 244.601 79.127 243.928 79.7509C243.26 80.3711 243.218 81.4239 243.842 82.0968C278.705 119.607 359.996 163.447 360.813 163.884C361.615 164.31 362.609 164.017 363.049 163.227Z" fill="white"/>
<path d="M238.777 91.1565C244.243 94.1967 251.142 92.2312 254.184 86.7623C257.224 81.2961 255.259 74.3971 249.79 71.3555C244.323 68.3153 237.424 70.2807 234.383 75.7496C231.341 81.2185 233.311 88.1163 238.777 91.1565Z" fill="white"/>
<path d="M567.728 266.744C568.127 266.026 567.942 265.108 567.267 264.607C566.577 264.094 497.015 213.506 381.755 212.033C380.839 212.02 380.088 212.753 380.073 213.671C380.063 214.586 380.795 215.339 381.711 215.353C495.912 216.814 564.611 266.769 565.289 267.272C566.024 267.817 567.063 267.665 567.608 266.929C567.656 266.867 567.693 266.806 567.728 266.744Z" fill="white"/>
<path d="M385.245 201.463C391.575 203.571 394.995 210.413 392.884 216.743C390.773 223.072 383.933 226.493 377.604 224.382C371.273 222.273 367.854 215.431 369.965 209.102C372.075 202.775 378.917 199.356 385.245 201.463Z" fill="white"/>
</g>
</svg>
