<svg width="36" height="36" viewBox="0 0 36 36" fill="none" xmlns="http://www.w3.org/2000/svg">
<path d="M29.9819 28.374C29.277 26.2761 26.4676 24.9629 24.4645 24.0826C23.6798 23.7389 21.5074 23.1558 21.2463 22.1678C21.1528 21.8118 21.1654 21.4762 21.2421 21.1545C21.1213 21.1776 20.9988 21.1913 20.8721 21.1913H19.567C18.525 21.1913 17.6784 20.3436 17.6784 19.3023C17.6784 18.2618 18.5254 17.4158 19.567 17.4158H20.8721C21.3033 17.4158 21.7121 17.5618 22.0418 17.8222C22.5252 17.7578 22.9914 17.6545 23.4261 17.5191C23.9969 16.3231 24.4421 14.893 24.5419 13.6621C24.9678 8.39528 21.7391 5.31388 17.1096 5.84658C13.7437 6.23403 11.7329 8.74388 11.5156 11.9751C11.2958 15.2686 12.5169 17.7011 13.814 19.4854C14.3821 20.2655 14.9788 20.7671 14.8871 21.7072C14.7807 22.8188 13.5921 23.1285 12.742 23.4701C11.7347 23.8747 10.6497 24.4886 10.1373 24.7725C8.37222 25.7472 6.43497 26.9211 5.99957 28.5269C5.03532 32.0857 8.29172 33.1637 10.9801 33.6614C13.2873 34.087 15.8888 34.1206 18.0287 34.1206C21.8994 34.1206 28.8595 33.9656 29.9819 31.056C30.3011 30.2304 30.1643 28.9147 29.9819 28.374Z" fill="#FFF5E0"/>
<path d="M21.6981 18.7711C21.521 18.5013 21.2182 18.3221 20.8728 18.3221H19.5676C19.023 18.3221 18.5838 18.762 18.5838 19.3038C18.5838 19.8477 19.023 20.2884 19.5676 20.2884H20.8728C21.2539 20.2884 21.5773 20.071 21.7404 19.7567C23.5601 19.6136 25.1428 19.0578 26.2537 18.237C26.5088 18.4015 26.8105 18.4978 27.136 18.4978H27.2179C28.1251 18.4978 28.8587 17.7635 28.8587 16.8552V13.5764C28.8587 12.9233 28.4758 12.3598 27.9235 12.098C27.6827 6.83299 23.3242 2.62109 18 2.62109C12.6758 2.62109 8.31652 6.83299 8.07677 12.098C7.52342 12.3602 7.14087 12.9233 7.14087 13.5764V16.8552C7.14087 17.7635 7.87517 18.4978 8.78027 18.4978H8.86322C9.76902 18.4978 10.5037 17.7635 10.5037 16.8552V13.5764C10.5037 12.9328 10.1316 12.3777 9.59087 12.1092C9.82502 7.67299 13.5063 4.13694 18 4.13694C22.4919 4.13694 26.1749 7.67299 26.408 12.1092C25.868 12.378 25.4963 12.9328 25.4963 13.5764V16.8552C25.4963 17.0729 25.5386 17.2756 25.6132 17.4649C24.657 18.1492 23.265 18.6367 21.6981 18.7711Z" fill="#FFF5E0"/>
</svg>
