<svg width="35" height="36" viewBox="0 0 35 36" fill="none" xmlns="http://www.w3.org/2000/svg">
<g clip-path="url(#clip0_2_2578)">
<path d="M4.9272 23.7041H1.45837C1.45837 24.2843 1.68884 24.8407 2.09908 25.2509C2.50931 25.6611 3.06571 25.8916 3.64587 25.8916H4.02869C4.10028 25.0884 4.41355 24.3257 4.9272 23.7041Z" fill="#FFF5E0"/>
<path d="M21.875 23.7041H11.1145C11.6281 24.3257 11.9413 25.0884 12.0129 25.8916H21.875C22.0684 25.8916 22.2539 25.8148 22.3906 25.678C22.5274 25.5413 22.6042 25.3558 22.6042 25.1624V24.4333C22.6042 24.2399 22.5274 24.0544 22.3906 23.9177C22.2539 23.7809 22.0684 23.7041 21.875 23.7041Z" fill="#FFF5E0"/>
<path d="M8.02093 28.8082C9.4304 28.8082 10.573 27.6656 10.573 26.2562C10.573 24.8467 9.4304 23.7041 8.02093 23.7041C6.61147 23.7041 5.46887 24.8467 5.46887 26.2562C5.46887 27.6656 6.61147 28.8082 8.02093 28.8082Z" fill="#FFF5E0"/>
<path d="M34.6732 19.1817L31.8715 13.0183C31.6392 12.509 31.2655 12.0771 30.7949 11.774C30.3243 11.4709 29.7766 11.3094 29.2168 11.3086H24.7917C24.5983 11.3086 24.4128 11.3854 24.2761 11.5222C24.1393 11.6589 24.0625 11.8444 24.0625 12.0378V23.5096C24.5911 22.9467 25.2712 22.5485 26.0208 22.3631C26.7705 22.1777 27.5578 22.213 28.2879 22.4648C29.0179 22.7165 29.6596 23.174 30.1357 23.782C30.6118 24.3901 30.9019 25.1228 30.9712 25.8919H32.8125C33.3927 25.8919 33.9491 25.6614 34.3593 25.2512C34.7695 24.841 35 24.2846 35 23.7044V20.6904C35 20.1699 34.8886 19.6555 34.6732 19.1817ZM31.3487 18.6002H26.6146C26.4212 18.6002 26.2357 18.5234 26.099 18.3866C25.9623 18.2499 25.8855 18.0645 25.8854 17.8711V14.9544C25.8854 14.761 25.9623 14.5755 26.099 14.4388C26.2358 14.302 26.4212 14.2252 26.6146 14.2252H29.5535C29.8334 14.2252 30.1075 14.3057 30.3429 14.4573C30.5783 14.6088 30.7652 14.8249 30.8811 15.0797L32.0127 17.5694C32.0632 17.6804 32.085 17.8024 32.0761 17.9241C32.0672 18.0458 32.028 18.1634 31.9619 18.266C31.8958 18.3685 31.805 18.4529 31.6979 18.5113C31.5908 18.5697 31.4707 18.6003 31.3487 18.6003V18.6002Z" fill="#FFF5E0"/>
<path d="M26.9792 28.8082C28.3886 28.8082 29.5312 27.6656 29.5312 26.2562C29.5312 24.8467 28.3886 23.7041 26.9792 23.7041C25.5697 23.7041 24.4271 24.8467 24.4271 26.2562C24.4271 27.6656 25.5697 28.8082 26.9792 28.8082Z" fill="#FFF5E0"/>
<path d="M20.4167 6.93359H3.64579C3.06563 6.93359 2.50923 7.16406 2.09899 7.5743C1.68876 7.98453 1.45829 8.54093 1.45829 9.12109V17.8711H0.767858C0.405006 17.8711 0.0683363 18.1192 0.00995739 18.4778C-0.0077788 18.5824 -0.00247813 18.6897 0.0254898 18.792C0.0534577 18.8944 0.10342 18.9895 0.171892 19.0705C0.240365 19.1516 0.3257 19.2168 0.421947 19.2615C0.518194 19.3062 0.623038 19.3294 0.729166 19.3295H2.51335C2.87661 19.3295 3.21321 19.5776 3.27159 19.9362C3.28932 20.0408 3.28402 20.148 3.25606 20.2504C3.22809 20.3528 3.17813 20.4478 3.10965 20.5289C3.04118 20.61 2.95585 20.6752 2.8596 20.7199C2.76335 20.7646 2.65851 20.7878 2.55238 20.7879H0.7682C0.405006 20.7878 0.0683363 21.0361 0.00995739 21.3944C-0.0077788 21.499 -0.00247813 21.6063 0.0254898 21.7087C0.0534577 21.811 0.10342 21.9061 0.171892 21.9872C0.240365 22.0683 0.3257 22.1334 0.421947 22.1781C0.518194 22.2229 0.623038 22.2461 0.729166 22.2461H21.875C22.0684 22.2461 22.2538 22.1693 22.3906 22.0325C22.5273 21.8958 22.6042 21.7103 22.6042 21.5169V9.12109C22.6042 8.54093 22.3737 7.98453 21.9635 7.5743C21.5532 7.16406 20.9968 6.93359 20.4167 6.93359Z" fill="#FFF5E0"/>
</g>
<defs>
<clipPath id="clip0_2_2578">
<rect width="35" height="35" fill="white" transform="translate(0 0.371094)"/>
</clipPath>
</defs>
</svg>
