<svg width="35" height="36" viewBox="0 0 35 36" fill="none" xmlns="http://www.w3.org/2000/svg">
<g clip-path="url(#clip0_2_2566)">
<path d="M14.2871 5.68569C14.2871 3.80103 15.8204 2.26772 17.7051 2.26772H18.8879L18.5311 1.27583C18.3305 0.718018 17.8048 0.371094 17.2445 0.371094C17.0893 0.371094 16.9314 0.397754 16.777 0.453945L4.82417 4.8044C4.11357 5.06308 3.74785 5.84941 4.00803 6.55946L4.6396 8.28335H14.2871V5.68569Z" fill="#FFF5E0"/>
<path d="M17.7051 4.31836C16.95 4.31836 16.3379 4.93045 16.3379 5.68555V8.2832H28.3008V5.68555C28.3008 4.93045 27.6887 4.31836 26.9336 4.31836H17.7051Z" fill="#FFF5E0"/>
<path d="M31.9238 28.0049H27.1387C24.3117 28.0049 22.0117 25.7049 22.0117 22.8779C22.0117 20.0509 24.3117 17.751 27.1387 17.751H31.9238V13.0684C31.9238 11.5582 30.6996 10.334 29.1895 10.334H2.73438C1.22425 10.334 0 11.5582 0 13.0684V32.6366C0 34.1467 1.22425 35.3709 2.73438 35.3709H29.1895C30.6996 35.3709 31.9238 34.1467 31.9238 32.6366V28.0049Z" fill="#FFF5E0"/>
<path d="M33.9746 19.8018H27.1387C25.4425 19.8018 24.0625 21.1817 24.0625 22.8779C24.0625 24.5741 25.4425 25.9541 27.1387 25.9541H33.9746C34.54 25.9541 35 25.4941 35 24.9287V20.8271C35 20.2617 34.54 19.8018 33.9746 19.8018ZM27.1387 23.9033C26.5724 23.9033 26.1133 23.4442 26.1133 22.8779C26.1133 22.3116 26.5724 21.8525 27.1387 21.8525C27.705 21.8525 28.1641 22.3116 28.1641 22.8779C28.1641 23.4442 27.705 23.9033 27.1387 23.9033Z" fill="#FFF5E0"/>
</g>
<defs>
<clipPath id="clip0_2_2566">
<rect width="35" height="35" fill="white" transform="translate(0 0.371094)"/>
</clipPath>
</defs>
</svg>
