<svg width="113" height="20" viewBox="0 0 113 20" fill="none" xmlns="http://www.w3.org/2000/svg">
<path d="M19.5132 7.42032C19.4459 7.20303 19.2667 7.04467 19.0511 7.01186L12.9932 6.08903L10.284 0.334523C10.1876 0.129672 9.98855 0 9.77066 0C9.55273 0 9.35373 0.129672 9.25728 0.334523L6.54793 6.08903L0.490165 7.01186C0.274564 7.04467 0.0953727 7.20303 0.0280472 7.42028C-0.0393164 7.63758 0.0168645 7.87608 0.172927 8.03551L4.55625 12.5148L3.52164 18.8397C3.48477 19.0649 3.57309 19.2924 3.74938 19.4267C3.84911 19.5026 3.96723 19.5413 4.08593 19.5413C4.17707 19.5413 4.26852 19.5185 4.35226 19.4723L9.77062 16.4861L15.1888 19.4723C15.3817 19.5786 15.6154 19.5609 15.7917 19.4266C15.968 19.2924 16.0563 19.0648 16.0195 18.8396L14.9845 12.5148L19.3683 8.03547C19.5244 7.87608 19.5806 7.63758 19.5132 7.42032Z" fill="#FFC62A"/>
<path d="M42.6912 7.42032C42.6238 7.20303 42.4447 7.04467 42.2291 7.01186L36.1712 6.08903L33.462 0.334523C33.3656 0.129672 33.1665 0 32.9486 0C32.7307 0 32.5317 0.129672 32.4353 0.334523L29.7259 6.08903L23.6681 7.01186C23.4525 7.04467 23.2734 7.20303 23.206 7.42028C23.1387 7.63758 23.1948 7.87608 23.3509 8.03551L27.7342 12.5148L26.6996 18.8397C26.6628 19.0649 26.7511 19.2924 26.9274 19.4267C27.0271 19.5026 27.1452 19.5413 27.2639 19.5413C27.3551 19.5413 27.4465 19.5185 27.5302 19.4723L32.9486 16.4861L38.3667 19.4723C38.5597 19.5786 38.7934 19.5609 38.9696 19.4266C39.1459 19.2924 39.2343 19.0648 39.1975 18.8396L38.1625 12.5148L42.5463 8.03547C42.7023 7.87608 42.7586 7.63758 42.6912 7.42032Z" fill="#FFC62A"/>
<path d="M65.8693 7.42032C65.8019 7.20303 65.6228 7.04467 65.4072 7.01186L59.3493 6.08903L56.6401 0.334523C56.5437 0.129672 56.3446 0 56.1267 0C55.9088 0 55.7098 0.129672 55.6134 0.334523L52.904 6.08903L46.8462 7.01186C46.6306 7.04467 46.4515 7.20303 46.3841 7.42028C46.3168 7.63758 46.3729 7.87608 46.529 8.03551L50.9123 12.5148L49.8777 18.8397C49.8409 19.0649 49.9292 19.2924 50.1055 19.4267C50.2052 19.5026 50.3233 19.5413 50.442 19.5413C50.5332 19.5413 50.6246 19.5185 50.7083 19.4723L56.1267 16.4861L61.5448 19.4723C61.7378 19.5786 61.9715 19.5609 62.1477 19.4266C62.324 19.2924 62.4124 19.0648 62.3756 18.8396L61.3406 12.5148L65.7244 8.03547C65.8804 7.87608 65.9367 7.63758 65.8693 7.42032Z" fill="#FFC62A"/>
<path d="M89.0472 7.42032C88.9799 7.20303 88.8008 7.04467 88.5852 7.01186L82.5273 6.08903L79.8181 0.334523C79.7216 0.129672 79.5226 0 79.3047 0C79.0868 0 78.8878 0.129672 78.7913 0.334523L76.082 6.08903L70.0242 7.01186C69.8086 7.04467 69.6294 7.20303 69.5621 7.42028C69.4947 7.63758 69.5509 7.87608 69.707 8.03551L74.0903 12.5148L73.0557 18.8397C73.0188 19.0649 73.1071 19.2924 73.2834 19.4267C73.3832 19.5026 73.5013 19.5413 73.62 19.5413C73.7111 19.5413 73.8026 19.5185 73.8863 19.4723L79.3047 16.4861L84.7228 19.4723C84.9157 19.5786 85.1494 19.5609 85.3257 19.4266C85.502 19.2924 85.5904 19.0648 85.5535 18.8396L84.5186 12.5148L88.9024 8.03547C89.0584 7.87608 89.1146 7.63758 89.0472 7.42032Z" fill="#FFC62A"/>
<path d="M112.225 7.42032C112.158 7.20303 111.979 7.04467 111.763 7.01186L105.705 6.08903L102.996 0.334523C102.9 0.129672 102.701 0 102.483 0C102.265 0 102.066 0.129672 101.969 0.334523L99.26 6.08903L93.2022 7.01186C92.9866 7.04467 92.8074 7.20303 92.7401 7.42028C92.6727 7.63758 92.7289 7.87608 92.885 8.03551L97.2683 12.5148L96.2337 18.8397C96.1968 19.0649 96.2851 19.2924 96.4614 19.4267C96.5611 19.5026 96.6793 19.5413 96.798 19.5413C96.8891 19.5413 96.9806 19.5185 97.0643 19.4723L102.483 16.4861L107.901 19.4723C108.094 19.5786 108.327 19.5609 108.504 19.4266C108.68 19.2924 108.768 19.0648 108.732 18.8396L107.697 12.5148L112.08 8.03547C112.236 7.87608 112.293 7.63758 112.225 7.42032Z" fill="#FFC62A"/>
</svg>
