<svg width="163" height="38" viewBox="0 0 163 38" fill="none" xmlns="http://www.w3.org/2000/svg">
<path d="M70.8998 1.19027L59.6117 1.09037L59.5119 1.68974C62.7584 1.78963 63.5576 2.38899 63.5576 5.63555V27.5623C63.5576 31.608 62.0592 31.8078 61.7095 31.8078C60.9104 31.8078 60.4608 31.3582 60.2111 30.4093C59.8615 28.8109 59.0623 28.0118 57.8137 28.0118C56.9146 28.0118 55.8657 28.811 55.8657 30.2095C55.8657 31.4582 56.7648 32.9566 59.3121 32.9566C64.6065 32.9566 67.4035 28.3614 67.4035 19.4709V4.83639C67.4035 4.23703 67.4035 3.93735 67.5034 3.43788C67.853 2.18921 68.6522 1.68973 70.9497 1.58984L70.8998 1.19027ZM95.0242 27.6122L84.2856 0.391113C84.2856 0.391113 84.2856 0.391119 84.1857 0.491013C84.0858 0.590907 83.9359 0.840633 83.836 1.09037C82.937 2.23915 81.988 3.18815 81.089 3.73757C81.089 3.83746 81.7882 5.13608 81.7882 5.13608L72.9975 28.3115C72.0985 30.8588 71.1495 31.7578 69.5512 32.1075L69.4513 32.7068L77.293 32.8067L77.3929 32.2074C77.293 32.1075 76.344 31.9576 76.344 31.9576C75.1952 31.8577 73.7967 31.5081 73.7967 30.0097C73.7967 29.3104 74.2462 27.7121 75.0454 25.5145L76.8934 20.5697H87.8818C87.8818 20.6696 89.7298 25.5145 89.7298 25.5145C90.6288 27.7121 91.1283 29.3104 91.1283 29.9098C91.1283 31.6579 89.0305 32.0076 87.3323 32.0076L87.2324 32.6069V32.7068H98.7702L98.8701 32.1075C96.5226 31.6579 96.0731 30.2594 95.0242 27.6122ZM84.2856 0.491013C84.2856 0.491013 84.5353 1.09038 84.8849 1.98942L84.2856 0.491013C84.2856 0.640854 84.2856 0.640854 84.2856 0.491013ZM84.8849 19.6706C81.8881 19.6706 77.4928 19.5708 77.3929 19.5708L77.4928 19.2211C78.2919 17.2732 82.0879 6.98412 82.4375 6.08507C82.5374 6.4347 87.632 19.371 87.7319 19.5708H84.835V19.6706H84.8849ZM87.7319 19.6706C87.7319 19.5708 87.7319 19.4209 87.632 19.321L87.7319 19.6706ZM113.604 32.4571C106.462 32.4571 102.167 24.8152 102.167 17.473C102.167 9.73121 105.863 1.44 113.804 1.44C120.747 1.44 124.193 7.084 124.992 12.4283L125.442 12.5282L125.542 2.23916L125.092 2.13926C124.992 2.13926 123.594 4.33692 123.594 4.33692C123.494 4.33692 123.494 4.23704 123.344 4.23704C120.347 1.83958 117.35 0.790683 113.754 0.790683C104.514 0.790683 97.8212 7.73332 97.8212 17.2732C97.8212 27.2127 103.715 33.4061 113.305 33.4061C117.251 33.4061 120.697 32.1574 123.794 29.71C123.794 29.9597 124.942 32.2573 124.942 32.2573H125.392L125.492 22.3179L125.042 22.218C123.894 28.6611 119.598 32.4571 113.604 32.4571ZM123.544 29.9597C123.644 29.8599 123.894 29.71 123.993 29.6101C123.894 29.71 123.644 29.8099 123.544 29.9597ZM145.121 0.640848C139.827 0.640848 129.787 4.08719 129.787 17.3731C129.787 23.2668 133.034 33.3062 144.921 33.3062C157.508 33.3062 160.854 23.1669 160.854 17.2732C160.804 5.83533 152.613 0.640848 145.121 0.640848ZM144.871 32.6069C137.729 32.6069 133.933 25.1149 133.933 17.6228C133.933 6.4347 139.727 1.48995 145.471 1.48995C149.167 1.48995 156.659 5.28593 156.659 17.3232C156.659 24.6154 152.513 32.6069 144.871 32.6069ZM177.986 15.9746C182.232 15.0755 184.679 12.2785 184.679 8.3327C184.679 5.93524 183.281 3.38794 181.233 2.43894C178.935 1.29016 176.638 1.04042 173.591 1.04042H172.542L163.302 1.14032L163.202 1.73969C165.849 1.98942 166.548 2.1892 166.548 4.28697V29.8099C166.548 31.5581 165.4 31.9077 163.202 32.0076L163.102 32.6069C163.202 32.7068 168.047 32.7068 168.047 32.7068L172.991 32.8067C181.532 32.8067 186.277 29.71 186.277 24.016C186.527 19.6707 183.181 16.4241 177.986 15.9746ZM170.494 1.63979L170.844 1.73969C172.792 1.73969 175.089 1.73968 176.588 2.33904C179.135 3.23809 180.633 5.5856 180.633 8.7822C180.633 15.2254 175.189 15.9246 172.792 15.9246H170.394L170.494 1.63979ZM174.44 32.1075C172.042 32.1075 170.494 31.6579 170.494 29.1106V16.7737L172.592 16.8736C177.686 16.8736 182.282 17.473 182.282 24.2658C182.282 29.3604 179.485 32.1075 174.44 32.1075ZM245.764 32.4571C238.622 32.4571 234.326 24.8152 234.326 17.473C234.326 9.73121 238.022 1.44 245.964 1.44C252.907 1.44 256.353 7.084 257.152 12.4283L257.602 12.5282L257.702 2.23916L257.252 2.13926C257.152 2.13926 255.754 4.33692 255.754 4.33692C255.654 4.33692 255.654 4.23704 255.504 4.23704C252.507 1.83958 249.51 0.790683 245.914 0.790683C236.674 0.790683 229.981 7.73332 229.981 17.2732C229.981 25.2148 233.777 30.9087 240.37 32.7568C238.272 35.404 235.975 36.5528 233.078 36.5528C227.983 36.5528 221.54 31.0086 215.546 24.6653C217.045 22.7174 219.242 19.4709 219.242 19.4709C220.741 17.3731 221.989 16.3742 224.437 16.0245L224.537 15.575L216.795 15.4751L216.695 15.9246C216.795 16.0245 217.045 16.0245 217.045 16.0245C217.744 16.0245 218.643 16.1244 218.993 16.6239L219.242 17.3232C219.143 18.1223 216.595 21.8184 215.097 24.1159C211.75 20.5198 208.654 16.7238 205.857 13.4772C206.306 13.2275 208.254 12.0787 208.254 12.0787L210.102 11.0298C212.4 9.43152 213.349 8.033 213.349 6.08507C213.349 2.63873 209.653 0.540948 207.005 0.540948C205.257 0.540948 203.559 1.14031 202.061 2.28909C200.462 3.53777 199.513 5.53564 199.513 7.9331C199.513 10.1308 200.412 12.778 201.811 14.8757C198.115 16.8237 194.668 19.7206 194.668 25.015C194.668 29.8598 198.265 33.5559 202.86 33.5559C207.255 33.5559 209.802 31.2584 212 28.7111L212.699 27.812C212.699 27.9119 212.799 27.9119 212.949 28.0618C220.791 36.1532 227.034 37.7515 231.08 37.7515C235.225 37.7515 238.122 36.2531 240.869 32.557C242.268 32.9066 243.766 33.1563 245.365 33.1563C249.31 33.1563 252.857 31.9077 255.854 29.4603C255.854 29.71 257.002 32.0076 257.002 32.0076H257.452L257.552 22.0681L257.102 21.9682C256.003 28.6611 251.758 32.4571 245.764 32.4571ZM205.807 13.2275C206.056 13.1276 206.256 12.9778 206.506 12.778C206.256 12.9778 206.056 13.0777 205.807 13.2275ZM201.761 5.83533C201.761 3.98729 202.36 2.83852 203.859 2.13926C204.658 1.78963 205.707 1.68974 206.955 1.88952C209.353 2.33905 211.101 4.43683 211.101 6.98412C211.101 9.18179 207.854 11.829 205.807 13.0777C203.409 10.3306 201.761 8.33268 201.761 5.83533ZM205.357 30.5092C201.212 30.5092 198.315 27.0628 198.315 22.0681C198.315 19.321 199.713 17.1234 202.46 15.3752C205.457 19.4209 208.903 23.5665 212.5 27.2626C210.452 29.3604 208.354 30.5092 205.357 30.5092ZM240.32 33.6059C240.57 33.3561 240.77 33.0065 241.019 32.7068C240.869 33.0565 240.67 33.4061 240.32 33.6059ZM255.654 29.9597C255.754 29.8599 256.003 29.71 256.103 29.6101C256.003 29.71 255.804 29.8099 255.654 29.9597ZM277.231 0.640848C271.936 0.640848 261.897 4.08719 261.897 17.3731C261.897 23.2668 265.144 33.3062 277.031 33.3062C289.618 33.3062 292.964 23.1669 292.964 17.2732C292.964 5.83533 284.723 0.640848 277.231 0.640848ZM277.031 32.6069C269.889 32.6069 266.093 25.1149 266.093 17.6228C266.093 6.4347 271.837 1.48995 277.63 1.48995C281.327 1.48995 288.819 5.28593 288.819 17.3232C288.769 24.6154 284.623 32.6069 277.031 32.6069Z" fill="white"/>
<path d="M44.0796 25.5819L44.0306 25.5624C43.3553 25.3177 42.6018 25.1807 41.8188 25.1807L41.4078 25.2003H41.2904H41.2708C37.5127 25.4939 35.7511 28.6843 35.712 31.5518C35.712 31.5714 35.712 31.6007 35.712 31.6007C35.712 31.6203 35.712 31.6692 35.712 31.6692C35.712 33.6168 35.2422 35.0652 34.2636 36.1026L34.107 36.2592C32.8445 37.4532 31.2101 37.5021 30.7404 37.5021L30.4468 37.4825C30.4468 37.4825 30.0161 37.4629 29.4289 37.3064L29.2919 37.2574C29.2724 37.2574 29.2234 37.2378 29.2234 37.2378C28.6558 37.0617 28.1567 36.8072 27.7261 36.5136L27.6576 36.4451L27.3444 36.2005C27.3248 36.1809 27.2759 36.132 27.2759 36.132C26.444 35.3882 25.896 34.4584 25.6219 33.284C25.4654 32.6479 25.3968 31.9922 25.4164 31.3365C25.4164 29.2519 26.0721 27.6469 27.315 26.6585C28.646 25.5917 30.3 25.4841 31.3178 25.7092C31.3373 25.7092 32.5802 25.9147 33.1479 27.0402C33.2653 27.1967 33.3045 27.3827 33.324 27.5099C33.324 27.5784 33.3436 27.6274 33.3436 27.6665C33.3436 27.8427 33.2947 28.009 33.2555 28.1167L33.2066 28.2929V28.3418V28.3907L33.2262 28.7724C33.2947 29.1149 33.6078 29.3596 33.9993 29.3596C34.1559 29.3596 34.3125 29.34 34.4691 29.2911C34.7431 29.1736 34.9193 29.0171 34.9878 28.7724C35.1444 28.1656 34.5572 27.3044 34.2831 26.9423C33.2849 25.7679 31.8169 25.1318 30.1434 25.1318C28.2252 25.1318 26.3168 25.993 25.0739 27.4121V18.3203L25.0935 6.40012C25.0935 4.22748 25.0935 1.74167 28.9396 0.43026H28.8907C28.9103 0.43026 28.9103 0.43026 28.9396 0.410687H23.694L18.1547 0.391113C18.1743 0.391113 18.1743 0.391114 18.2037 0.410687H18.1547C19.1236 0.75322 19.8478 1.15447 20.3959 1.60466L20.4154 1.62423C20.4644 1.67316 20.5329 1.71231 20.572 1.76124C22.0009 3.09223 22.0009 4.81468 22.0009 6.37076V27.4218V28.5962C21.9519 28.5473 21.7562 28.3516 21.4333 28.0286C19.6032 26.1691 13.8095 20.3167 11.216 17.3122L10.4233 16.3629C10.3743 16.314 6.83158 12.3798 9.69906 9.53184C11.0986 8.13235 13.3397 7.51579 15.4438 7.97577C17.636 8.44553 19.3096 9.94288 20.1708 12.1547V12.1057C20.1708 12.1253 20.1708 12.1253 20.1904 12.1253V10.4518L20.2099 8.69019C20.161 8.64126 15.3753 5.58782 9.82629 8.27915C9.77736 8.29873 4.82531 10.8335 6.79243 15.4919C7.29155 16.7544 8.05491 17.8407 8.62253 18.4964C8.62253 18.4964 8.62253 18.4964 8.77912 18.6726C8.79869 18.6921 8.79869 18.6921 8.82805 18.7215C8.82805 18.7215 8.80848 18.7411 8.77912 18.7411C8.55402 18.8585 7.64387 19.3479 6.7435 19.984C4.53171 21.3443 0.793213 24.1922 0.793213 28.058C0.793213 33.8908 5.90184 37.9816 13.2027 37.9816L14.3575 37.9327L14.6022 37.9131L15.346 37.8446C16.902 37.688 18.3505 37.3259 19.6227 36.8072L19.7793 36.7387C19.7989 36.7387 20.2295 36.5332 20.2295 36.5332L20.8363 36.22L20.9929 36.132C21.9911 35.5643 22.8034 34.9576 23.4591 34.3019C23.4787 34.3508 23.5276 34.3899 23.5472 34.4389C24.2518 35.3686 26.3951 37.7663 29.7911 37.9621H29.8596H30.2412C32.776 37.9621 34.3321 36.7192 35.1933 35.6818C35.663 35.075 35.986 34.4584 36.1622 34.0768C36.2307 34.2529 36.2992 34.4389 36.3873 34.615C36.9549 35.8775 37.8846 36.8562 39.0982 37.414C39.93 37.7957 40.8402 38.0012 41.8384 38.0012C42.2201 38.0012 42.6116 37.9523 43.0324 37.8838H43.0813C46.2424 37.3455 47.6223 34.6248 47.8279 32.2956C48.1215 29.7902 47.0351 26.6976 44.0796 25.5819ZM28.8809 0.45962H28.9298C27.6869 0.890233 26.8453 1.4285 26.2874 2.06463C26.8257 1.43828 27.6576 0.890233 28.8809 0.45962ZM20.1121 12.1351V12.184C19.975 11.8219 19.8185 11.4598 19.6423 11.1466C19.8185 11.45 19.975 11.773 20.1121 12.1351ZM7.48728 20.3167C6.05843 21.452 4.14025 23.4387 3.67049 26.1985C4.14025 23.4387 6.06822 21.452 7.48728 20.3167ZM17.2348 37.0715C12.9384 38.0893 7.08603 36.4158 4.72745 31.8454C3.91515 30.26 3.57262 28.8115 3.57262 27.5001C3.57262 22.1664 9.06293 19.2206 9.13144 19.2011C9.13144 19.2206 21.8834 32.3152 21.8834 32.3152C21.8737 34.6052 20.1316 36.3962 17.2348 37.0715ZM18.1645 0.440047C18.1449 0.440047 18.1449 0.440047 18.1156 0.420474L23.3612 0.440047H18.1645ZM23.3906 34.3997C23.4102 34.3801 23.4102 34.3801 23.4395 34.3508C23.4297 34.3801 23.4102 34.3997 23.3906 34.3997ZM25.0641 27.461C25.2696 27.2359 25.4751 27.0304 25.6709 26.8542C25.4654 27.0304 25.2598 27.2359 25.0641 27.461ZM36.0056 34.3801C36.0545 34.2921 36.0937 34.204 36.123 34.1355C36.123 34.1355 36.123 34.1355 36.123 34.1551C36.0937 34.2236 36.0447 34.3116 36.0056 34.3801ZM41.7503 37.6782C39.1275 37.6782 37.7476 34.7814 37.7476 31.9139C37.7476 27.5686 39.9202 25.5819 41.9559 25.5819C43.2868 25.5819 46.0663 27.0989 46.0663 31.7573C46.0663 34.6346 44.5493 37.6782 41.7503 37.6782Z" fill="white"/>
</svg>
