<svg width="255" height="31" viewBox="0 0 255 31" fill="none" xmlns="http://www.w3.org/2000/svg">
<g clip-path="url(#clip0_1132_508)">
<path fill-rule="evenodd" clip-rule="evenodd" d="M135.019 0.831788C129.143 0.792792 124.387 2.31054 120.55 5.26783C116.673 8.22675 114.755 11.823 114.755 16.2989C114.755 19.9759 116.673 23.334 119.79 25.972C123.548 29.1691 128.743 30.6077 135.138 30.6077C137.815 30.6077 140.574 30.1678 142.653 29.6086C145.73 28.8095 149.806 26.9705 151.045 24.2527L150.965 20.2168C150.886 17.4189 151.086 17.2985 153.963 17.2592V16.2989H143.132V17.2592C144.251 17.2592 145.01 17.2193 145.689 17.6585C146.33 18.1383 146.169 20.2961 146.169 21.1359L146.13 23.5737C145.21 25.3325 143.091 26.2913 141.573 26.8911C140.174 27.4509 137.615 28.0499 135.219 28.0898C131.221 28.1298 128.104 27.0105 125.506 25.3723C122.868 23.6528 120.31 20.0971 120.31 15.6603C120.31 11.3836 123.028 7.86561 126.226 5.66715C128.304 4.22912 131.821 2.98976 135.298 3.0304C138.296 3.07102 141.094 3.78916 143.132 4.94933C145.451 6.22811 147.929 8.82631 148.847 10.7442L149.766 10.3845L148.287 4.1095C146.45 2.98995 144.17 2.18996 142.012 1.67162C139.655 1.11103 137.257 0.872422 135.019 0.831788ZM17.7232 1.49494C13.637 1.5097 9.56655 1.56979 2.19269 1.5393L2.15308 2.45916C3.15214 2.45916 3.51245 2.41875 4.11162 2.89809C4.67144 3.37905 4.751 3.8971 4.751 5.65685V24.4809C4.751 26.0796 4.87083 27.7186 4.51094 28.1579C3.99174 28.7577 3.6317 28.8777 2.35273 28.8377V29.7964H17.541C21.6978 29.7964 28.532 29.6769 31.3292 27.479C32.4088 26.8797 34.3665 25.0412 34.3265 21.9234C34.3265 18.1265 32.6884 16.9669 31.2096 16.1278C29.8905 15.4088 27.8124 14.8496 25.3744 14.4497C27.3325 13.7707 27.772 13.5698 29.011 12.6108C30.2899 11.6911 31.1304 9.85327 31.1304 8.01471C31.1304 3.21805 25.9337 1.70035 21.9374 1.50048C20.4485 1.49035 19.0853 1.49003 17.7232 1.49494ZM252.224 1.5393L242.311 1.57892V2.41875C243.949 2.49837 244.431 2.53897 244.749 3.69751C244.908 4.13786 244.87 5.13568 244.87 6.53471V24.8002C244.87 28.1173 245.15 28.8774 242.512 28.8774V29.7964H252.303L252.264 28.8774C249.586 28.8774 249.705 27.8374 249.705 24.8002V6.53471C249.705 3.25732 249.625 2.41875 252.224 2.41875V1.5393ZM37.3132 1.57971V2.61841C38.2729 2.61841 38.6731 2.65879 39.2322 2.9789C39.8721 3.37862 40.6714 5.2165 41.6304 7.09486L53.621 29.7964H57.6577C60.1357 24.8807 64.1319 16.8874 67.2096 10.8519C69.2877 6.85583 70.8073 3.65849 71.4064 2.89967C71.7663 2.45933 72.7655 2.61841 73.4045 2.61841V1.57971L65.0118 1.61933V2.61841C65.0917 2.61841 67.4496 2.2995 67.2096 3.81715C67.0098 5.01631 57.6576 22.5229 56.4986 25.3208L47.1852 7.77544C46.506 6.49503 45.9465 5.53623 45.6672 4.7774C44.9074 2.97866 46.0672 2.61841 47.6661 2.61841V1.57971H37.3132ZM218.614 1.60665C218.017 1.60194 217.381 1.60414 216.706 1.60747C215.806 1.61189 214.836 1.61936 213.796 1.61936H201.008V2.4988C202.767 2.4988 203.487 3.01872 203.487 5.05632V7.17491V22.4424V27.3182C203.487 28.8364 202.367 28.7961 201.008 28.7562V29.7964H211V28.7562C209.361 28.7562 208.402 28.5978 208.361 26.6392V18.3256C209.44 18.4051 210.4 18.3256 212.078 18.3256C212.678 18.3256 215.874 18.3658 216.834 18.3256C220.471 18.3256 222.15 22.642 224.109 25.6797C225.747 28.2376 225.028 29.7964 235.5 29.7964C235.5 29.5566 235.421 29.0364 235.421 28.7966C230.944 28.8365 230.104 26.1582 228.185 22.7213C226.388 19.6043 225.906 17.566 221.271 17.0461C228.305 15.7278 230.144 12.5304 230.144 8.8926C230.104 5.21712 227.387 2.93716 222.949 1.93786C221.848 1.69108 220.406 1.6208 218.614 1.60665ZM80.4676 1.61853V2.49798C81.8665 2.49798 82.2664 2.61797 82.6663 3.17856C83.0655 3.6969 83.0656 4.5763 83.0656 6.13618V19.6836V26.6787C83.0656 28.5176 82.3465 28.8366 80.6277 28.8766V29.7964H105.767L108.684 23.9612L107.766 23.6007C106.806 25.1596 104.608 26.6787 101.131 26.6787H93.8566H87.9017V4.89625C87.9017 3.57684 88.1418 3.17857 88.4611 2.85847C88.9409 2.45876 89.1807 2.53861 90.4196 2.49798V1.61853H80.4676ZM173.057 1.61935L161.426 23.7615C160.387 25.7603 159.988 26.4395 159.508 27.3586C158.948 28.3176 158.627 28.9578 156.708 28.9978V29.7964H165.383L165.423 28.8782C163.863 28.9181 163.186 28.7972 163.145 27.3982C163.145 26.9583 163.545 26.2405 164.144 25.1615L165.782 22.2831H182.568L184.568 25.6797C185.887 27.8783 185.526 28.6781 183.168 28.7982V29.7964H193.56V28.7173C191.082 28.7173 191.202 28.0393 189.003 24.0024L176.734 1.61935H173.057ZM213.592 3.65238C216.664 3.63392 219.777 3.78771 221.751 4.73623C223.429 5.53567 224.828 6.45504 224.828 9.25309C224.828 13.2098 222.39 14.2492 220.55 14.9283C217.314 15.7674 211.997 15.4873 208.361 15.5273V3.73636C209.92 3.73636 211.748 3.66346 213.592 3.65238ZM18.09 3.88373C20.5388 3.88048 22.9366 3.97782 24.2557 4.81625C25.9738 5.9358 26.3735 6.73555 26.3735 8.41405C26.3735 9.45236 25.5348 11.2528 24.6558 11.9318C22.5771 13.6107 18.8601 13.6899 16.1022 13.6899H9.50713V3.89719H15.6617C16.4511 3.89719 17.2738 3.88486 18.09 3.88373ZM174.015 5.85653L181.09 19.1251H167.301L174.015 5.85653ZM17.8761 16.1967C21.9393 16.1857 24.8241 16.3423 26.8528 17.8463C27.9319 18.6454 28.9714 20.0443 28.9714 21.7237C28.9714 26.3597 23.1767 26.6795 17.461 26.6795H9.50713V16.2078C11.6652 16.2078 13.9039 16.2478 16.0626 16.2078C16.692 16.2028 17.2957 16.1983 17.8761 16.1967Z" fill="white"/>
</g>
<defs>
<clipPath id="clip0_1132_508">
<rect width="254.367" height="30.1713" fill="white" transform="translate(0.0991211 0.633301)"/>
</clipPath>
</defs>
</svg>
