<svg width="139" height="39" viewBox="0 0 139 39" fill="none" xmlns="http://www.w3.org/2000/svg">
<path fill-rule="evenodd" clip-rule="evenodd" d="M95.9167 16.1452C95.235 16.1452 94.6909 15.7795 94.6909 15.0475C94.6909 13.9703 95.7784 12.4976 96.9051 12.4976C97.6159 12.4976 97.9524 13.14 97.9524 13.7926C97.9532 14.9689 97.1717 16.1452 95.9167 16.1452Z" fill="white"/>
<path d="M29.6294 0.371094C31.2012 0.371105 32.8818 0.579066 34.2759 1.34961L36.2915 2.44727C36.6768 2.66499 37.1416 2.7041 37.5669 2.7041C39.0695 2.70409 40.3447 1.83415 41.5005 0.983398L41.9956 1.49805C39.2775 3.33636 38.0807 5.30324 36.9634 8.34766L36.4702 8.02148C36.6675 7.34938 36.8266 6.67801 36.8267 5.96582C36.8267 2.48649 32.477 0.865234 29.5308 0.865234C27.3365 0.865279 25.1029 1.53699 23.146 2.49609C16.0489 5.97543 10.394 12.2429 6.98389 19.3203C5.35322 22.691 4.10791 26.5064 4.10791 30.293C4.10805 34.8091 6.58862 37.8231 11.2046 37.8232C16.2062 37.8232 21.9797 33.9887 26.0425 31.2705C26.6951 29.8073 27.4169 28.4343 28.395 27.1582C31.4293 23.1749 36.3526 19.0234 41.6411 19.0234C44.4282 19.0236 45.7131 20.3582 45.7925 23.0566L47.561 19.9727H50.8921L43.1226 33.6133C42.7766 34.2171 42.4312 34.9283 42.4312 35.6406C42.4315 36.4604 43.2416 36.9345 43.9829 36.9346C45.9101 36.9346 48.0461 35.223 49.4692 34.1064C53.156 31.2397 56.5073 27.9486 58.7505 23.8066L60.8354 19.9707H64.354L63.396 21.6914C65.1453 20.6434 67.132 19.7736 69.2075 19.7734C70.3538 19.7734 71.5109 20.3073 71.5112 21.5918C71.5112 22.5015 71.0161 23.2829 70.354 23.8467C70.483 23.9355 70.611 23.9941 70.769 23.9941C71.3618 23.994 71.9645 23.5796 72.4487 23.2832C75.4453 21.4346 78.1531 18.8261 79.9419 15.791L82.3745 11.6396H85.6655L81.4653 18.9639H86.3472L86.0815 19.5967H81.2271L73.0815 33.7129C72.7757 34.2561 72.4488 34.8892 72.4487 35.5205C72.4487 36.3312 73.4291 36.6982 74.1108 36.6982C75.6432 36.6981 76.9765 35.7493 78.1724 34.8789C80.3779 33.2883 82.3936 31.3804 84.3208 29.4619C85.7133 28.0781 87.0682 26.6346 88.2153 25.0439C88.8278 24.1932 89.3722 23.3041 89.9155 22.4141L91.4077 19.9727H94.6597L86.605 34.0986C86.3181 34.6025 86.1295 35.1745 86.1294 35.7578C86.1294 36.3797 86.6131 36.9539 87.2554 36.9541C89.1731 36.9541 91.2992 35.3428 92.7114 34.1162L98.564 29.0264C101.796 25.2593 107.075 19.26 112.442 19.2598C114.171 19.2598 116.15 20.1604 116.15 22.127C116.15 23.6091 115.16 25.0127 114.202 26.042C112.086 28.3056 108.922 29.68 105.988 30.4805C104.504 30.8862 103.031 30.9749 101.499 30.9844C101.025 32.0624 100.541 33.1696 100.541 34.375C100.541 36.0639 102.013 37.4297 103.684 37.4297C107.697 37.4294 113.559 33.2871 116.464 30.9551C118.924 28.9539 121.197 26.7339 123.255 24.3223C124.037 23.4023 124.897 22.434 125.49 21.3662L126.271 19.9736H129.552L127.161 24.501C129.73 22.1681 132.865 19.7852 136.512 19.7852C137.708 19.7852 138.647 20.527 138.647 21.752C138.647 22.8889 137.648 24.2129 136.443 24.2129C135.81 24.2129 135.167 23.6093 135.167 22.9678C135.167 21.9503 136.256 21.208 137.194 21.208C137.381 21.208 137.57 21.2274 137.747 21.2471C137.441 20.6149 136.986 20.3174 136.245 20.3174C134.545 20.3174 132.834 21.1481 131.411 21.998C128.188 23.9158 125.718 26.8419 123.85 30.0547L119.165 38.0908H115.794L123.394 24.9736C121.734 26.9298 119.995 28.7688 118.039 30.4199C115.844 32.2692 113.511 33.9697 111.049 35.4424C108.518 36.9552 105.661 38.328 102.638 38.3281C99.7415 38.3281 97.061 36.6984 97.061 33.5635C97.0611 32.6341 97.2886 31.7346 97.5063 30.8359C94.4918 33.6233 90.0935 38.0995 85.7446 38.0996C84.103 38.0996 82.7595 37.5179 82.7593 35.749C82.7593 34.5531 83.5501 33.4946 84.1226 32.4961L86.8315 27.7412C84.1826 30.6465 81.3752 33.4447 78.1626 35.7178C76.3934 36.9743 74.3273 38.1299 72.1021 38.1299C70.6893 38.1298 69.1873 37.2993 69.187 35.709C69.187 34.3833 70.057 33.1081 70.6899 32.001L77.5591 19.9414C76.325 21.103 75.0388 22.2087 73.7046 23.2539C72.548 24.1542 71.1847 25.2099 69.6421 25.21C68.7033 25.21 67.8824 24.6266 67.8823 23.6084C67.8823 22.5909 68.7822 21.7803 69.7808 21.7803C70.0667 21.7803 70.3046 21.8696 70.5513 22.0078C70.6205 21.8199 70.6899 21.6119 70.6899 21.4043C70.6899 20.7124 69.8194 20.2871 69.2368 20.2871C67.5361 20.2872 65.7273 21.1172 64.3042 21.9766C62.871 22.847 61.9524 24.2399 61.1323 25.6748L53.9946 38.0898H50.5347L55.6157 29.2129C52.1954 32.8313 46.6605 38.2068 41.4712 38.207C40.0779 38.207 38.7827 37.5162 38.7827 35.9932C38.7827 35.0459 39.1477 34.166 39.5337 33.3154C37.0624 35.8951 33.682 38.5439 29.9458 38.5439C27.5046 38.5438 25.3991 36.8235 25.3989 34.3037C25.3989 33.4938 25.616 32.7123 25.8433 31.9512C21.4943 35.0256 15.4941 38.6631 10.0278 38.6631C4.45225 38.6631 0.459473 34.897 0.459473 29.2734C0.459503 26.2188 1.65499 23.2535 2.99951 20.5645C5.60919 15.3451 9.43459 10.6594 13.9321 6.94336C17.4115 4.07655 21.5929 1.88243 25.9819 0.81543C27.1761 0.525087 28.4004 0.375861 29.6294 0.371094ZM41.9351 19.5361C40.0081 19.5363 38.3872 20.4951 36.8745 21.6123C33.8199 23.8461 31.2197 26.9788 29.5591 30.3691C28.9363 31.6547 28.4126 32.9094 28.4126 34.3428C28.4126 35.9444 29.3619 37.4276 31.1011 37.4277C35.1442 37.4277 39.3952 32.9299 41.688 29.8555C43.1418 27.9078 45.1187 24.9622 45.1187 22.4814C45.1186 20.6824 43.705 19.5361 41.9351 19.5361ZM111.86 19.9502C107.709 19.9515 103.568 27.1968 101.661 30.3789C101.966 30.3899 102.263 30.4102 102.57 30.4102C105.504 30.41 108.539 28.9257 110.625 26.9199C111.941 25.6547 113.808 23.3313 113.808 21.3838C113.808 20.3656 112.749 19.9502 111.86 19.9502Z" fill="white"/>
</svg>
