<svg width="280" height="37" viewBox="0 0 280 37" fill="none" xmlns="http://www.w3.org/2000/svg">
<path d="M70.2891 36.2733C70.1933 36.2623 69.8688 36.2287 69.5678 36.1984C66.8208 35.9226 63.8883 34.7992 61.5832 33.1397C58.1271 30.6515 55.6916 27.0284 54.6757 22.864C54.1359 20.6511 54.0286 18.1719 54.3738 15.8911C55.2996 9.77604 59.3405 4.53814 64.9461 2.18707C66.3451 1.60037 67.7334 1.22936 69.3689 1.00517C70.2754 0.880969 72.4833 0.880274 73.3979 1.00408C75.3375 1.26646 76.9814 1.75557 78.6705 2.57282C80.529 3.47204 81.8152 4.39792 83.3721 5.95741C84.7331 7.32076 85.5735 8.45546 86.5479 10.2455L86.7551 10.6263L86.0206 11.1696C85.0086 11.9181 82.6349 13.6118 81.8619 14.1369L81.2232 14.5707L80.9605 13.9997C80.6357 13.2938 80.4044 12.8755 80.03 12.3162C78.5338 10.0817 76.1478 8.48575 73.5471 7.97973C72.171 7.71198 70.4768 7.74182 69.1202 8.05762C67.6956 8.3893 66.1486 9.13328 64.9668 10.0552C64.4904 10.4268 63.6137 11.2962 63.2279 11.7797C61.1465 14.3879 60.3798 17.7107 61.0937 21.0296C61.3408 22.1786 61.9806 23.6798 62.6479 24.6769C64.4142 27.3159 67.1217 29.0066 70.1883 29.3856C70.7304 29.4527 72.0363 29.4527 72.5785 29.3856C75.2943 29.0499 77.8037 27.6389 79.5184 25.4834C80.0234 24.8485 80.3753 24.299 80.7767 23.5186C80.9525 23.1766 81.1111 22.8968 81.1291 22.8968C81.147 22.8968 82.3974 23.7792 83.9076 24.8577L86.6535 26.8186L86.3753 27.3448C85.7978 28.4369 84.8044 29.8097 83.8792 30.7942C82.3029 32.4714 80.7676 33.6112 78.7699 34.5872C77.0445 35.43 75.2163 35.9677 73.2735 36.2035C72.8379 36.2564 70.5988 36.3087 70.2891 36.2733ZM93.7669 18.4202V1.23463H100.432V13.5704H117.842V1.23463H124.507V35.6058H117.842V20.4845H100.432V35.6058H93.7669V18.4202ZM131.241 32.5591C131.984 30.8834 135.412 23.15 138.858 15.3736L145.125 1.23468L149.8 1.23518L154.476 1.23572L162.051 18.2094C166.217 27.5449 169.669 35.2781 169.721 35.3944L169.816 35.6058H161.835L160.294 32.1987L158.754 28.7917L149.835 28.8039L140.916 28.8161L139.393 32.2109L137.869 35.6058H129.89L131.241 32.5591ZM155.935 21.8576C155.906 21.7363 149.851 8.20113 149.825 8.20148C149.807 8.20173 144.056 21.6232 143.964 21.8805C143.954 21.909 146.253 21.927 149.949 21.927C155.054 21.927 155.948 21.9166 155.935 21.8576ZM175.193 18.4202V1.23463L179.881 1.23567L184.569 1.23672L191.906 11.5414L199.243 21.846L199.256 11.5403L199.268 1.23463H205.983V35.6067L203.289 35.5938L200.594 35.5809L191.289 22.6625C186.17 15.5574 181.966 9.74331 181.946 9.74226C181.925 9.74122 181.908 15.5601 181.908 22.6731V35.6058H175.193V18.4202ZM218.12 18.4202V1.23463H242.145V8.14865H224.835V15.0129H240.852V21.927H224.835V28.7912H244.632V35.6058H218.12V18.4202ZM254.033 18.4202V1.23463H260.748V28.7912H279.451V35.6058H254.033V18.4202Z" fill="white"/>
<path d="M33.5719 0.911623C35.1048 0.912391 36.3838 1.06344 37.7721 1.40674C40.9085 2.18237 43.5837 3.6692 45.8883 5.91944C47.1376 7.1393 48.1163 8.38522 48.9068 9.76026L49.0269 9.96924L47.0767 10.9751C46.0043 11.5284 44.8823 12.1095 44.5836 12.2661L44.0406 12.5503L43.6305 11.9312C41.6047 8.87527 38.2906 6.8863 34.6637 6.54834C33.5899 6.44829 31.9951 6.5402 31.026 6.7583C30.5271 6.87058 29.7181 7.10213 29.7183 7.13233C29.7207 7.1507 29.8519 7.32514 30.0123 7.52198C32.0907 10.0723 33.3889 13.1808 33.8082 16.6138C33.9083 17.4332 33.9213 19.5252 33.8316 20.3364C33.4529 23.7619 32.1579 26.9233 30.0904 29.4683C29.622 30.0449 29.6415 30.0051 29.7916 30.063C29.8626 30.0904 30.1948 30.1832 30.5299 30.2681C32.2326 30.6995 34.0657 30.7604 35.7867 30.4429C38.9169 29.8653 41.7362 28.0137 43.5494 25.3452C43.7171 25.0983 43.8685 24.8793 43.8873 24.8569C43.9048 24.8366 44.3236 25.0217 44.817 25.269C45.7945 25.7591 48.8554 27.3436 48.8883 27.3765C48.941 27.4336 47.9666 28.8797 47.3687 29.6313C46.8023 30.3436 45.3174 31.827 44.608 32.3892C42.0444 34.4207 39.1674 35.6625 35.9986 36.106C32.3602 36.6152 28.5068 35.934 25.3717 34.2261L24.9283 33.9839L24.3785 34.2749C21.6555 35.7155 18.5322 36.4026 15.3687 36.2564C12.962 36.145 10.2823 35.4138 8.12166 34.2798C6.46309 33.4092 5.14817 32.4353 3.77108 31.0562C2.69239 29.9758 1.89589 28.9805 1.22225 27.8696L0.927326 27.3833L1.34627 27.1616C2.16163 26.7292 5.87765 24.8257 5.90682 24.8257C5.92422 24.8275 6.07703 25.0362 6.24764 25.2905C8.18425 28.177 11.214 30.0548 14.7594 30.5659C15.3792 30.6553 17.2436 30.6407 17.9185 30.5415C18.6695 30.4311 19.5701 30.226 20.1422 30.0356C20.1793 30.0232 20.1084 29.908 19.9449 29.7153C18.6776 28.2215 17.5216 26.171 16.8717 24.2622C15.696 20.8095 15.6124 17.1029 16.6314 13.6206C17.2643 11.4581 18.3537 9.35839 19.733 7.64307C19.9384 7.38764 20.107 7.16209 20.107 7.14209C20.1029 7.07332 19.0281 6.788 18.3238 6.66846C17.2336 6.48349 15.5268 6.46056 14.5416 6.61768C12.8838 6.88213 11.2011 7.50302 9.88631 8.33545C8.42107 9.26319 7.19925 10.4554 6.2242 11.9087L5.79354 12.5503L5.24569 12.2622C4.9443 12.104 3.82444 11.5241 2.7574 10.9731C1.69027 10.4222 0.813217 9.96793 0.809162 9.96436C0.800712 9.93662 1.46264 8.88464 1.73592 8.4917C2.57092 7.2912 4.05369 5.70101 5.14901 4.83155C8.01315 2.55814 11.1971 1.27735 14.7818 0.957522C15.4468 0.898185 17.0964 0.897643 17.7379 0.956545C20.0137 1.16549 21.9646 1.7174 23.9801 2.72217L24.9439 3.20264L25.2662 3.01905C25.7873 2.72251 26.7134 2.29513 27.4166 2.02588C29.3895 1.27048 31.3766 0.910556 33.5719 0.911623ZM24.9371 10.3306C24.9071 10.3514 21.4332 12.7756 21.4332 18.6196C21.4332 24.656 24.8991 26.8845 24.9371 26.9087C24.9371 26.9087 28.358 24.1803 28.358 18.6196C28.3579 13.059 24.9371 10.3306 24.9371 10.3306Z" fill="white"/>
</svg>
