<svg width="313" height="39" viewBox="0 0 313 39" fill="none" xmlns="http://www.w3.org/2000/svg">
<path d="M97.3805 20.1703V25.9965C97.3805 26.2046 92.3346 28.7015 88.3811 28.7015C85.0519 28.7535 81.8787 27.401 79.5898 25.0602C76.8328 22.4072 75.2722 18.7658 75.2722 14.9164C75.2722 7.58161 80.8383 1.07917 88.2771 0.871094H88.6412C91.3982 0.871094 94.0512 1.91149 96.08 3.78419C96.3921 3.99227 96.6522 4.30438 96.7562 4.72053V7.37353H96.5482C96.5482 7.32151 96.5482 7.32152 96.5482 7.2695C96.028 5.18872 94.6755 3.42005 92.7507 2.43168C91.6583 1.91148 90.4099 1.59937 89.2134 1.49533C81.5145 1.02716 79.5898 10.0265 79.5898 14.8643C79.5898 20.4304 83.3872 27.8692 89.0574 27.8692C93.6351 27.8692 95.7679 24.3319 96.6522 21.939C96.8083 21.3668 97.0163 20.7425 97.1204 20.1703H97.3805ZM107.16 27.5571V1.44331H101.75V1.65139C101.958 1.65139 103.935 2.01553 103.935 3.31602V27.5571C103.935 28.0253 103.571 28.3894 103.103 28.3894V28.6495H107.992V28.3894C107.576 28.3894 107.212 28.0773 107.212 27.6091C107.16 27.6091 107.16 27.6091 107.16 27.5571ZM295.002 27.5571V1.44331H289.592V1.65139C289.801 1.65139 291.829 2.01553 291.829 3.31602V27.5571C291.829 28.0253 291.465 28.3894 290.997 28.3894V28.6495H295.835V28.3894C295.419 28.3894 295.055 28.0773 295.002 27.6091C294.95 27.6091 294.95 27.6091 295.002 27.5571ZM21.6921 1.75543V2.01553C22.7845 2.01553 23.2527 2.69178 22.9406 3.52409L15.2937 23.7597L7.7509 4.04429C7.17869 2.53572 8.16706 2.01553 9.36351 2.01553V1.75543H0V2.01553C1.71664 1.96351 3.32925 2.95188 3.95348 4.56448L13.1609 28.6495H14.0973L23.5128 3.73217C23.929 2.7438 24.9173 2.06755 26.0097 2.01553V1.75543H21.6921ZM306.187 28.6495C309.984 28.6495 312.117 26.0485 312.117 23.3435C312.117 21.1067 310.452 19.7022 308.111 18.9739L305.354 18.0375C303.17 17.3613 302.025 16.685 302.025 15.0724C302.025 13.2517 303.43 12.1073 305.823 12.1073C308.371 12.1073 309.308 14.084 310.036 16.3209H310.244V13.1997C308.996 12.1593 307.487 11.5871 305.875 11.5871C302.805 11.5871 300.465 13.7199 300.465 16.529C300.465 19.8582 302.649 20.5865 304.158 21.1067L307.071 22.0951C308.319 22.5632 309.516 23.1354 309.516 25.0081C309.672 26.5687 308.476 27.9732 306.915 28.1293C306.759 28.1293 306.603 28.1293 306.447 28.1293C302.649 28.1293 301.193 25.2162 300.517 22.8753H300.308V26.4127C302.025 27.7652 304.106 28.5455 306.187 28.6495ZM229.562 26.7768C229.978 27.7132 230.914 28.3374 231.955 28.3894V28.6495H224.36V28.3894C224.672 28.3894 226.025 28.0773 225.556 26.8288L222.383 18.5057H213.332L210.055 27.1409C209.639 28.1813 210.887 28.3894 211.147 28.3894V28.6495H207.506V28.3894C208.286 28.4414 209.066 27.9733 209.43 27.297L219.054 1.59936H219.99L229.562 26.7248M217.806 6.59324L213.8 17.2052H221.811L217.806 6.59324ZM244.492 11.6391C241.318 11.6391 239.966 14.3962 239.55 15.8527H239.498V12.1073H235.544V12.3154C235.96 12.3674 236.273 12.6275 236.325 13.0436V27.7652C236.273 28.1813 235.908 28.4414 235.544 28.3894V28.6495H240.382V28.3894C240.018 28.4414 239.706 28.1813 239.602 27.8172V18.9739C239.602 14.8123 241.943 12.3674 243.503 12.3674C244.336 12.3674 244.804 12.9396 244.804 13.98V15.7487C244.804 16.3729 245.22 16.8411 246.364 16.8411C247.301 16.8411 247.873 16.4249 247.873 15.7487C247.821 12.8356 246.832 11.6391 244.492 11.6391ZM42.1358 27.7132C41.3035 28.3374 40.3151 28.6495 39.3267 28.6495C36.9338 28.6495 35.9975 27.5571 35.6333 25.7364V25.6324V25.8404C34.2288 27.5571 32.096 28.5455 29.8592 28.5975C27.5183 28.5975 25.7496 27.297 25.7496 24.8001C25.7496 20.1183 32.044 19.1819 35.5813 19.286H35.6854C35.6854 17.9855 35.6854 16.685 35.6854 15.9047C35.6854 13.5118 35.0611 12.0553 32.5642 12.0553C30.8996 12.0553 29.1309 12.5235 29.1309 14.3441V16.0608C29.0789 16.7891 28.5067 17.3093 27.7784 17.3093H27.6744C26.0097 17.3093 26.0618 16.633 26.0618 15.6966C26.0618 13.5118 28.7668 11.5351 32.6162 11.5351C37.1939 11.5351 38.8586 14.032 38.8586 16.685V25.7364C38.8586 27.1409 39.3787 27.5571 40.159 27.7132C40.7833 27.8692 41.4595 27.7652 42.0317 27.4531L42.1358 27.7132ZM35.4253 24.8001C35.5813 24.3839 35.6333 23.9677 35.6854 23.5516C35.6854 23.0834 35.6854 22.5632 35.6854 21.991C35.6854 21.939 35.6854 21.835 35.6854 21.7829V19.9102C33.2404 19.9102 28.9228 20.3784 28.9228 23.5516C28.7668 25.3723 30.1193 26.9329 31.94 27.0889H32.3561C33.7606 26.9849 34.9571 26.1005 35.3732 24.748M61.2269 27.5051V16.633C61.2269 13.1477 58.9381 11.6391 55.6608 11.6391C55.4528 11.6391 55.1927 11.6391 54.9846 11.6391H54.7765C54.6205 11.6391 54.4644 11.6912 54.3083 11.6912H54.1003C53.9442 11.6912 53.7881 11.7432 53.6841 11.7952C53.6321 11.7952 53.5801 11.7952 53.528 11.7952C53.372 11.8472 53.2159 11.8992 53.0599 12.0033H52.9558C52.2796 12.3154 51.6553 12.7315 51.1352 13.1997C51.0311 13.3038 50.8751 13.4078 50.823 13.5638V13.6159C50.5109 13.928 50.2508 14.2921 50.0427 14.6563L49.9907 14.7083C49.9387 14.8123 49.8867 14.8643 49.8347 14.9684V12.1073H45.309V12.3154C45.7251 12.3154 46.0372 12.6275 46.0893 13.0436V27.7132C46.0372 28.1293 45.7251 28.4414 45.309 28.4414V28.7015H50.0948V28.4414C49.6786 28.3894 49.3665 28.0253 49.3145 27.5571V19.1299C49.3145 18.8178 49.3145 18.5577 49.3145 18.2976C49.3145 18.1936 49.3665 18.0895 49.3665 18.0375C49.3665 17.8815 49.4185 17.6734 49.4185 17.5173C49.4185 17.3092 49.4185 17.3613 49.4705 17.3093C49.9387 14.7083 52.1235 12.8356 54.7765 12.6795H54.8806C57.2214 12.6795 57.8457 13.4078 58.0017 15.8007C58.0017 16.2168 58.0537 16.737 58.0537 17.1532V27.6091C58.0017 28.0773 57.6896 28.4414 57.2214 28.4414V28.7015H62.0592V28.4414C61.539 28.3374 61.1749 27.9733 61.2269 27.5051C61.2269 27.5571 61.2269 27.5571 61.2269 27.5051ZM159.596 0.923116C157.411 1.07917 155.382 2.2236 154.082 3.99226C153.145 5.24073 152.417 6.74929 152.417 10.1826V11.1189C152.261 11.8992 151.429 13.0436 150.596 13.0436C151.221 13.0436 151.897 12.8876 152.417 12.5755V27.8692C152.313 28.2333 152.001 28.4934 151.637 28.4934V28.7015H156.371V28.4934C156.006 28.4934 155.694 28.2333 155.642 27.8692V13.1477H159.284V12.1593H155.642V6.95738C155.642 3.15996 157.359 1.44331 159.44 1.44331C160.376 1.44331 161.52 1.80744 161.52 3.15995V5.08467C161.52 5.70891 161.937 6.12506 163.029 6.12506C164.121 6.12506 164.538 5.70891 164.538 5.08467C164.538 2.84784 163.757 0.871094 159.648 0.871094M197.57 17.3093C196.009 17.3093 194.033 19.234 192.888 20.7946C192.316 21.5228 191.224 23.5516 190.495 24.592C192.42 26.7768 194.501 28.3894 196.582 26.8808L196.738 27.1409C194.501 29.2737 190.912 29.2217 188.727 27.0369C188.727 27.0369 188.571 26.8808 188.519 26.8288C187.01 28.2333 185.033 28.9616 183.005 28.9096C177.074 29.1697 175.462 25.3723 175.462 22.9794C175.462 19.6501 178.219 18.1416 179.831 17.5694L180.404 17.4133L180.768 17.3093L180.248 16.685C179.311 15.6966 178.739 14.3962 178.687 13.0436C178.635 10.3386 180.82 8.10181 183.525 8.04979H183.837C186.906 8.04979 188.727 9.81845 188.727 12.4714C188.727 12.6275 188.727 12.7836 188.727 12.8876C188.727 12.9916 188.727 13.0437 188.727 13.1477V13.1997C188.623 13.5118 188.519 13.876 188.363 14.1361C188.311 14.2401 188.311 14.2921 188.258 14.3962C188.154 14.5522 188.05 14.6563 187.894 14.8123C186.906 15.8007 185.71 16.529 184.357 16.7891L185.658 18.4537C187.322 20.6385 188.571 22.2511 190.235 24.1758C190.391 23.9678 190.495 23.7597 190.651 23.5516C191.692 21.5228 192.316 19.234 192.472 16.9451H197.622V17.2572M182.953 14.9164C183.369 15.3845 183.681 15.8527 184.045 16.2689C185.658 15.5926 186.334 14.6042 186.542 12.3154C186.542 10.4947 185.449 8.3619 183.525 8.3619H183.265C181.652 8.67401 179.935 11.171 182.953 14.9164ZM188.05 26.7248C188.154 26.6207 188.259 26.5687 188.363 26.4127L188.258 26.3086C184.305 21.4188 182.328 18.9739 181.392 17.8294C181.028 18.0375 180.612 18.2976 180.3 18.5577C179.779 19.0259 179.415 19.5981 179.155 20.2223C178.999 20.7946 178.895 21.4188 178.895 22.043C179.103 23.6556 179.831 25.1642 180.924 26.3606C182.484 28.0773 185.033 28.4934 187.062 27.349C187.114 27.349 187.114 27.297 187.166 27.297L187.426 27.1409C187.634 26.9849 187.842 26.8288 188.05 26.7248ZM127.604 25.0081C126.615 26.6728 124.639 28.6495 120.477 28.6495C116.576 28.6495 112.83 25.2682 112.83 20.2223C112.83 16.4249 115.275 12.7836 118.76 11.8472C119.333 11.6911 119.905 11.5871 120.477 11.6391H121.101H121.153C121.622 11.6391 122.142 11.7432 122.61 11.8472C125.939 12.4714 128.332 15.4886 128.176 18.8698V19.0259H116.472C116.472 19.5461 116.576 20.5865 116.628 21.2627C117.096 24.696 119.489 27.8172 122.454 27.8172C123.39 27.8172 124.275 27.5051 125.055 26.9849C125.679 26.4127 126.147 25.7884 126.511 25.0081H127.448H127.604ZM117.98 14.1881C117.46 15.4886 117.148 16.8411 117.044 18.2456H124.795C124.795 15.6446 123.754 12.2634 120.893 12.2634H120.425C119.333 12.4714 118.396 13.1997 117.98 14.1881ZM146.175 25.0602C145.186 26.7248 143.21 28.7015 139.048 28.7015C135.147 28.7015 131.401 25.3203 131.401 20.2744C131.401 16.4769 133.846 12.8356 137.279 11.8992C137.852 11.7432 138.424 11.6912 138.996 11.6912H139.62H139.672C140.14 11.6912 140.661 11.7952 141.129 11.8992C144.458 12.5235 146.851 15.5406 146.695 18.9219V19.0779H135.147C135.147 19.5981 135.199 20.6385 135.303 21.3148C135.771 24.748 138.164 27.8692 141.181 27.8692C142.117 27.8692 143.002 27.5571 143.782 27.0369C144.406 26.5167 144.926 25.8404 145.238 25.0602H146.175ZM136.707 14.1881C136.187 15.4886 135.875 16.8411 135.771 18.2456H143.522C143.522 15.6446 142.481 12.2634 139.568 12.2634H139.204C138.112 12.4714 137.175 13.1997 136.707 14.1881ZM286.315 24.9561C285.327 26.6207 283.402 28.5975 279.189 28.5975C275.287 28.5975 271.594 25.2682 271.594 20.1703C271.594 16.3209 274.039 12.6795 277.472 11.7432C278.044 11.5871 278.564 11.5351 279.137 11.4831C279.345 11.4831 279.553 11.4831 279.761 11.4831H279.813C280.281 11.4831 280.801 11.5871 281.269 11.6912C284.599 12.3154 286.991 15.3325 286.835 18.7138V18.8698H275.339C275.339 19.6501 275.391 20.3784 275.495 21.1067C275.963 24.54 278.356 27.6611 281.321 27.6611C282.258 27.6611 283.142 27.349 283.922 26.8288C284.547 26.2566 285.015 25.6324 285.379 24.9041L286.315 24.9561ZM276.796 14.084C276.275 15.3845 275.963 16.737 275.859 18.1416H283.61C283.61 15.5406 282.57 12.1593 279.657 12.1593H279.241C278.2 12.3154 277.264 13.0436 276.796 14.084ZM265.559 14.3441C266.808 16.0088 267.432 17.9855 267.38 20.0663C267.38 25.0602 263.999 28.6495 259.681 28.6495C259.525 28.6495 259.369 28.6495 259.213 28.6495C258.641 28.5975 258.069 28.4934 257.496 28.2854C256.716 27.9733 256.092 27.401 255.728 26.7248V38.8453H250.266V38.6372C250.474 38.6372 252.451 38.2211 252.451 36.9726V13.1477C252.451 12.8356 252.19 12.5755 251.826 12.5755H251.774V12.3674H255.676V14.3441C257.028 12.8876 258.901 12.1073 260.878 12.1593C262.75 12.0553 264.415 12.8876 265.559 14.3441ZM258.745 27.7652C262.282 27.7652 264.051 23.6556 264.051 19.9102C264.103 17.9855 263.531 16.1128 262.438 14.6042C261.658 13.5638 260.358 13.0437 259.057 13.1477C257.861 13.1477 255.676 14.4482 255.676 16.3209C255.676 16.4769 255.676 16.685 255.676 16.8411V24.54C255.728 24.8521 255.78 25.2162 255.884 25.5283C256.144 26.4647 256.82 27.245 257.705 27.5571C258.017 27.6611 258.329 27.7652 258.641 27.7652" fill="white"/>
</svg>
