<svg width="16" height="14" viewBox="0 0 16 14" fill="none" xmlns="http://www.w3.org/2000/svg">
<path d="M13.5804 0.0380859H12.1942V1.42431C12.1942 1.70155 11.9632 1.88638 11.7321 1.88638C11.5011 1.88638 11.27 1.70155 11.27 1.42431V0.0380859H3.87687V1.42431C3.87687 1.70155 3.64583 1.88638 3.4148 1.88638C3.18376 1.88638 2.95272 1.70155 2.95272 1.42431V0.0380859H1.5665C0.873393 0.0380859 0.365112 0.638781 0.365112 1.42431V3.08777H15.1515V1.42431C15.1515 0.638781 14.3197 0.0380859 13.5804 0.0380859ZM0.365112 4.05812V12.5141C0.365112 13.3458 0.873393 13.9003 1.61271 13.9003H13.6266C14.3659 13.9003 15.1977 13.2996 15.1977 12.5141V4.05812H0.365112ZM4.47756 11.821H3.36859C3.18376 11.821 2.99893 11.6823 2.99893 11.4513V10.2961C2.99893 10.1113 3.13755 9.92645 3.36859 9.92645H4.52377C4.7086 9.92645 4.89343 10.0651 4.89343 10.2961V11.4513C4.84722 11.6823 4.7086 11.821 4.47756 11.821ZM4.47756 7.6623H3.36859C3.18376 7.6623 2.99893 7.52367 2.99893 7.29264V6.13745C2.99893 5.95262 3.13755 5.76779 3.36859 5.76779H4.52377C4.7086 5.76779 4.89343 5.90642 4.89343 6.13745V7.29264C4.84722 7.52367 4.7086 7.6623 4.47756 7.6623ZM8.17415 11.821H7.01897C6.83414 11.821 6.64931 11.6823 6.64931 11.4513V10.2961C6.64931 10.1113 6.78793 9.92645 7.01897 9.92645H8.17415C8.35898 9.92645 8.54381 10.0651 8.54381 10.2961V11.4513C8.54381 11.6823 8.40519 11.821 8.17415 11.821ZM8.17415 7.6623H7.01897C6.83414 7.6623 6.64931 7.52367 6.64931 7.29264V6.13745C6.64931 5.95262 6.78793 5.76779 7.01897 5.76779H8.17415C8.35898 5.76779 8.54381 5.90642 8.54381 6.13745V7.29264C8.54381 7.52367 8.40519 7.6623 8.17415 7.6623ZM11.8707 11.821H10.7156C10.5307 11.821 10.3459 11.6823 10.3459 11.4513V10.2961C10.3459 10.1113 10.4845 9.92645 10.7156 9.92645H11.8707C12.0556 9.92645 12.2404 10.0651 12.2404 10.2961V11.4513C12.2404 11.6823 12.1018 11.821 11.8707 11.821ZM11.8707 7.6623H10.7156C10.5307 7.6623 10.3459 7.52367 10.3459 7.29264V6.13745C10.3459 5.95262 10.4845 5.76779 10.7156 5.76779H11.8707C12.0556 5.76779 12.2404 5.90642 12.2404 6.13745V7.29264C12.2404 7.52367 12.1018 7.6623 11.8707 7.6623Z" fill="#CE9461"/>
</svg>
