<svg width="17" height="16" viewBox="0 0 17 16" fill="none" xmlns="http://www.w3.org/2000/svg">
<g clip-path="url(#clip0_1132_27)">
<path d="M8.62782 7.68107C9.6675 7.68107 10.5678 7.30818 11.3034 6.57247C12.039 5.83689 12.4118 4.93685 12.4118 3.89706C12.4118 2.85762 12.039 1.95746 11.3032 1.22164C10.5675 0.486169 9.66738 0.113281 8.62782 0.113281C7.58803 0.113281 6.68799 0.486169 5.95241 1.22176C5.21682 1.95734 4.84381 2.8575 4.84381 3.89706C4.84381 4.93685 5.21682 5.83701 5.95253 6.57259C6.68823 7.30806 7.58839 7.68107 8.62782 7.68107Z" fill="#CE9461"/>
<path d="M15.2489 12.1944C15.2276 11.8883 15.1847 11.5544 15.1216 11.2017C15.0578 10.8465 14.9757 10.5106 14.8774 10.2037C14.7759 9.88639 14.6378 9.57307 14.4671 9.27282C14.29 8.96118 14.0819 8.68981 13.8484 8.46651C13.6043 8.2329 13.3053 8.04508 12.9596 7.90808C12.6152 7.7718 12.2334 7.70276 11.825 7.70276C11.6647 7.70276 11.5096 7.76856 11.21 7.96357C11.0257 8.08379 10.81 8.22283 10.5694 8.37662C10.3636 8.50774 10.0848 8.6306 9.74041 8.74183C9.40444 8.85055 9.06331 8.90568 8.72662 8.90568C8.38993 8.90568 8.04893 8.85055 7.7126 8.74183C7.3686 8.63072 7.0898 8.50786 6.88424 8.37674C6.64584 8.22439 6.43009 8.08535 6.24298 7.96345C5.94381 7.76844 5.78859 7.70264 5.62822 7.70264C5.21973 7.70264 4.83809 7.7718 4.49373 7.9082C4.14829 8.04496 3.84924 8.23278 3.60484 8.46663C3.37147 8.69005 3.16327 8.9613 2.98636 9.27282C2.8158 9.57307 2.67772 9.88627 2.57607 10.2038C2.47791 10.5107 2.3958 10.8465 2.33204 11.2017C2.26887 11.5539 2.22596 11.8879 2.20474 12.1948C2.18389 12.4954 2.17334 12.8074 2.17334 13.1225C2.17334 13.9426 2.43404 14.6065 2.94812 15.0961C3.45585 15.5793 4.12767 15.8244 4.94465 15.8244H12.5093C13.3263 15.8244 13.9979 15.5794 14.5057 15.0961C15.0199 14.6069 15.2806 13.9428 15.2806 13.1224C15.2805 12.8058 15.2698 12.4936 15.2489 12.1944Z" fill="#CE9461"/>
</g>
<defs>
<clipPath id="clip0_1132_27">
<rect width="15.7104" height="15.7105" fill="white" transform="translate(0.884521 0.113281)"/>
</clipPath>
</defs>
</svg>
