<svg width="14" height="11" viewBox="0 0 14 11" fill="none" xmlns="http://www.w3.org/2000/svg">
<path fill-rule="evenodd" clip-rule="evenodd" d="M0.571442 1.46642C0.571442 0.705615 1.18819 0.0888672 1.94899 0.0888672H12.051C12.8118 0.0888672 13.4286 0.705615 13.4286 1.46642V1.78045L7.35212 5.83215C7.26641 5.88726 7.14201 5.92659 7 5.92659C6.85801 5.92659 6.7336 5.88726 6.6479 5.83215L0.571442 1.78046V1.46642ZM0.571442 3.16021V9.27254C0.571442 10.0333 1.18819 10.6501 1.94899 10.6501H12.051C12.8118 10.6501 13.4286 10.0333 13.4286 9.27254V3.1602L7.98579 6.78938L7.9805 6.7929C7.69153 6.98099 7.34452 7.07455 7 7.07455C6.6555 7.07455 6.3085 6.98097 6.01954 6.79288L6.01421 6.7894L0.571442 3.16021Z" fill="white"/>
</svg>
