<svg width="20" height="20" viewBox="0 0 20 20" fill="none" xmlns="http://www.w3.org/2000/svg">
<path fill-rule="evenodd" clip-rule="evenodd" d="M4.16728 14.6553C3.84186 14.9808 3.84191 15.5084 4.16738 15.8338C4.49284 16.1593 5.02048 16.1593 5.34589 15.8338L10.0003 11.1786L14.655 15.8333C14.9804 16.1588 15.5081 16.1588 15.8335 15.8333C16.1589 15.5079 16.1589 14.9803 15.8335 14.6548L11.1787 10L15.8332 5.34468C16.1585 5.01922 16.1585 4.49158 15.833 4.16618C15.5076 3.84076 14.9799 3.84081 14.6545 4.16628L10.0001 8.8215L5.34532 4.16668C5.01989 3.84124 4.49224 3.84124 4.16681 4.16668C3.84137 4.49212 3.84137 5.01975 4.16681 5.34519L8.82175 10.0001L4.16728 14.6553Z" fill="white"/>
</svg>
