<svg width="128" height="61" viewBox="0 0 128 61" fill="none" xmlns="http://www.w3.org/2000/svg">
<path d="M56.1559 32.6224C55.5033 32.6224 54.8996 32.518 54.3449 32.3091C53.7902 32.0938 53.3203 31.8066 52.9352 31.4477L53.1408 29.7248C53.5454 30.1751 54.0121 30.534 54.5407 30.8016C55.0758 31.0692 55.6632 31.2029 56.3027 31.2029C56.988 31.2029 57.5264 31.0365 57.9179 30.7037C58.316 30.3643 58.5151 29.9597 58.5151 29.4898C58.5151 29.0004 58.2769 28.5566 57.8005 28.1585C57.3241 27.7604 56.616 27.5614 55.6762 27.5614H55.1182V26.142H55.6762C56.1526 26.142 56.5833 26.0604 56.9684 25.8972C57.3599 25.7275 57.6699 25.5154 57.8984 25.2609C58.1333 25.0064 58.2508 24.7454 58.2508 24.4778C58.2508 24.0536 58.0615 23.7338 57.683 23.5185C57.3045 23.3031 56.9064 23.1954 56.4887 23.1954C55.9209 23.1954 55.4152 23.2803 54.9714 23.4499C54.5276 23.6131 54.0969 23.9068 53.6792 24.331L53.4247 22.9409C53.7184 22.6015 54.1361 22.3209 54.6777 22.099C55.2194 21.8771 55.7969 21.7662 56.4104 21.7662C57.05 21.7662 57.6308 21.8674 58.1529 22.0697C58.675 22.272 59.0894 22.5591 59.3961 22.9311C59.7093 23.3031 59.866 23.7469 59.866 24.2624C59.866 24.6866 59.742 25.0749 59.494 25.4273C59.246 25.7732 58.9393 26.0604 58.5738 26.2888C58.2149 26.5172 57.8625 26.6673 57.5166 26.7391C58.2867 26.9153 58.9197 27.2416 59.4157 27.718C59.9182 28.1944 60.1694 28.7948 60.1694 29.5192C60.1694 30.0478 60.0063 30.5503 59.68 31.0267C59.3537 31.4966 58.8903 31.8817 58.2899 32.1819C57.6895 32.4755 56.9782 32.6224 56.1559 32.6224ZM65.5535 34.2376L71.6521 20.6992H72.9443L66.8554 34.2376H65.5535ZM81.3727 32.4462V23.6261L79.2779 24.9085L79.0625 23.3912L81.3727 21.9228H82.988V28.9416C82.988 29.2614 82.9945 29.6465 83.0075 30.0968C83.0206 30.5405 83.0369 30.9778 83.0565 31.4085C83.0826 31.8327 83.1087 32.1786 83.1348 32.4462H81.3727Z" fill="white"/>
<g clip-path="url(#clip0_2_3532)">
<path d="M65.6095 30.7219H7.52826L8.85289 34.0587L-0.037056 30.0445L8.85289 26.0303L7.52826 29.3671H65.6095C65.8979 28.0055 67.0345 26.9883 68.3935 26.9883C69.9713 26.9874 71.2498 28.3567 71.2498 30.0445C71.2498 31.7323 69.9713 33.1007 68.3944 33.1007C67.0354 33.1007 65.8979 32.0835 65.6104 30.7219H65.6095Z" fill="#FFF5E0"/>
</g>
<g opacity="0.2" clip-path="url(#clip1_2_3532)">
<path d="M62.3905 30.7219H120.472L119.147 34.0587L128.037 30.0445L119.147 26.0303L120.472 29.3671H62.3905C62.1021 28.0055 60.9656 26.9883 59.6066 26.9883C58.0288 26.9874 56.7502 28.3567 56.7502 30.0445C56.7502 31.7323 58.0288 33.1007 59.6057 33.1007C60.9646 33.1007 62.1021 32.0835 62.3896 30.7219H62.3905Z" fill="#FFF5E0"/>
</g>
<defs>
<clipPath id="clip0_2_3532">
<rect width="40.8675" height="8.25293" fill="white" transform="matrix(-1 0 0 1 40.8675 26.0303)"/>
</clipPath>
<clipPath id="clip1_2_3532">
<rect width="38.5542" height="8.25293" fill="white" transform="translate(89.4458 26.0303)"/>
</clipPath>
</defs>
</svg>
